<?xml version="1.0" encoding="utf-8"?><!DOCTYPE svg PUBLIC "-//W3C//DTD SVG 1.1//EN" "http://www.w3.org/Graphics/SVG/1.1/DTD/svg11.dtd"><svg version="1.1" baseProfile="full" xmlns="http://www.w3.org/2000/svg" xmlns:xlink="http://www.w3.org/1999/xlink" xmlns:ev="http://www.w3.org/2001/xml-events"   height="33px"   width="33px" ><path opacity="0.302" fill="rgb( 77, 77, 77 )" d="M16.8440000000001,32.375 C8.00799999999998,32.375 0.84399999999999,25.211 0.84399999999999,16.375 C0.84399999999999,7.53899999999999 8.00799999999998,0.375 16.8440000000001,0.375 C25.6799999999999,0.375 32.8440000000001,7.53899999999999 32.8440000000001,16.375 C32.8440000000001,25.211 25.6799999999999,32.375 16.8440000000001,32.375 ZM16.8440000000001,3.375 C9.67599999999999,3.375 3.84399999999999,9.20700000000011 3.84399999999999,16.375 C3.84399999999999,23.5429999999999 9.67599999999999,29.375 16.8440000000001,29.375 C24.0119999999999,29.375 29.8440000000001,23.5429999999999 29.8440000000001,16.375 C29.8440000000001,9.20700000000011 24.0119999999999,3.375 16.8440000000001,3.375 ZM15.357,22.98 C15.357,22.98 15.354,22.9760000000001 15.354,22.9760000000001 C15.087,23.221 14.734,23.375 14.3440000000001,23.375 C13.516,23.375 12.8440000000001,22.703 12.8440000000001,21.875 C12.8440000000001,21.4369999999999 13.034,21.047 13.333,20.7729999999999 C13.333,20.7729999999999 13.33,20.769 13.33,20.769 C13.33,20.769 18.124,16.375 18.124,16.375 C18.124,16.375 13.33,11.98 13.33,11.98 C13.33,11.98 13.333,11.9760000000001 13.333,11.9760000000001 C13.034,11.703 12.8440000000001,11.3119999999999 12.8440000000001,10.875 C12.8440000000001,10.046 13.516,9.375 14.3440000000001,9.375 C14.734,9.375 15.087,9.52800000000002 15.354,9.77299999999991 C15.354,9.77299999999991 15.357,9.76900000000001 15.357,9.76900000000001 C15.357,9.76900000000001 21.357,15.269 21.357,15.269 C21.667,15.5530000000001 21.8440000000001,15.954 21.8440000000001,16.375 C21.8440000000001,16.796 21.667,17.1959999999999 21.357,17.48 C21.357,17.48 15.357,22.98 15.357,22.98 Z "/></svg>