<?xml version="1.0" encoding="utf-8"?><!DOCTYPE svg PUBLIC "-//W3C//DTD SVG 1.1//EN" "http://www.w3.org/Graphics/SVG/1.1/DTD/svg11.dtd"><svg version="1.1" baseProfile="full" xmlns="http://www.w3.org/2000/svg" xmlns:xlink="http://www.w3.org/1999/xlink" xmlns:ev="http://www.w3.org/2001/xml-events"   height="12px"   width="14px" ><path fill="rgb( 31, 75, 165 )" d="M13.843,7.37400000000002 C13.843,7.37400000000002 13.843,9.37400000000002 13.843,9.37400000000002 C13.843,10.479 12.948,11.374 11.844,11.374 C11.844,11.374 9.843,11.374 9.843,11.374 C8.739,11.374 7.84399999999999,10.479 7.84399999999999,9.37400000000002 C7.84399999999999,9.37400000000002 7.84399999999999,7.37400000000002 7.84399999999999,7.37400000000002 C7.84399999999999,7.37400000000002 7.84399999999999,5.37400000000002 7.84399999999999,5.37400000000002 C7.84399999999999,2.61300000000006 10.082,0.37400000000002 12.843,0.37400000000002 C13.396,0.37400000000002 13.843,0.822 13.843,1.37400000000002 C13.843,1.92700000000002 13.396,2.37400000000002 12.843,2.37400000000002 C11.187,2.37400000000002 9.843,3.71699999999998 9.843,5.37400000000002 C9.843,5.37400000000002 11.844,5.37400000000002 11.844,5.37400000000002 C12.948,5.37400000000002 13.843,6.26900000000001 13.843,7.37400000000002 ZM4.843,11.374 C4.843,11.374 2.843,11.374 2.843,11.374 C1.739,11.374 0.843,10.479 0.843,9.37400000000002 C0.843,9.37400000000002 0.843,7.37400000000002 0.843,7.37400000000002 C0.843,7.37400000000002 0.843,5.37400000000002 0.843,5.37400000000002 C0.843,2.61300000000006 3.08199999999999,0.37400000000002 5.843,0.37400000000002 C6.396,0.37400000000002 6.843,0.822 6.843,1.37400000000002 C6.843,1.92700000000002 6.396,2.37400000000002 5.843,2.37400000000002 C4.187,2.37400000000002 2.843,3.71699999999998 2.843,5.37400000000002 C2.843,5.37400000000002 4.843,5.37400000000002 4.843,5.37400000000002 C5.94799999999999,5.37400000000002 6.843,6.26900000000001 6.843,7.37400000000002 C6.843,7.37400000000002 6.843,9.37400000000002 6.843,9.37400000000002 C6.843,10.479 5.94799999999999,11.374 4.843,11.374 Z "/></svg>