<?xml version="1.0" encoding="utf-8"?><!DOCTYPE svg PUBLIC "-//W3C//DTD SVG 1.1//EN" "http://www.w3.org/Graphics/SVG/1.1/DTD/svg11.dtd"><svg version="1.1" baseProfile="full" xmlns="http://www.w3.org/2000/svg" xmlns:xlink="http://www.w3.org/1999/xlink" xmlns:ev="http://www.w3.org/2001/xml-events"   height="17px"   width="17px" ><path fill="rgb( 213, 213, 213 )" d="M14.844,16.374 C14.844,16.374 5.844,16.374 5.844,16.374 C5.844,16.374 5.844,16.374 5.844,16.374 C5.844,16.374 2.844,16.374 2.844,16.374 C1.739,16.374 0.844,15.479 0.844,14.374 C0.844,14.374 0.844,6.37400000000002 0.844,6.37400000000002 C0.844,5.26999999999998 1.739,4.37400000000002 2.844,4.37400000000002 C2.844,4.37400000000002 3.844,4.37400000000002 3.844,4.37400000000002 C3.844,4.37400000000002 3.844,2.37400000000002 3.844,2.37400000000002 C3.844,1.26999999999998 4.739,0.375 5.844,0.375 C5.844,0.375 14.844,0.375 14.844,0.375 C15.948,0.375 16.844,1.26999999999998 16.844,2.37400000000002 C16.844,2.37400000000002 16.844,14.374 16.844,14.374 C16.844,15.479 15.948,16.374 14.844,16.374 ZM14.844,3.37400000000002 C14.844,2.822 14.396,2.37400000000002 13.844,2.37400000000002 C13.844,2.37400000000002 6.844,2.37400000000002 6.844,2.37400000000002 C6.291,2.37400000000002 5.844,2.822 5.844,3.37400000000002 C5.844,3.37400000000002 5.844,12.374 5.844,12.374 C5.844,12.927 5.396,13.374 4.844,13.374 C4.291,13.374 3.844,12.927 3.844,12.374 C3.844,12.374 3.844,6.37400000000002 3.844,6.37400000000002 C3.844,6.37400000000002 3.844,6.37400000000002 3.844,6.37400000000002 C3.291,6.37400000000002 2.844,6.822 2.844,7.37400000000002 C2.844,7.37400000000002 2.844,13.374 2.844,13.374 C2.844,13.926 3.291,14.374 3.844,14.374 C3.844,14.374 3.844,14.374 3.844,14.374 C3.844,14.374 3.844,14.374 3.844,14.374 C3.844,14.374 6.844,14.374 6.844,14.374 C6.844,14.374 6.844,14.374 6.844,14.374 C6.844,14.374 13.844,14.374 13.844,14.374 C14.396,14.374 14.844,13.926 14.844,13.374 C14.844,13.374 14.844,3.37400000000002 14.844,3.37400000000002 ZM7.844,10.374 C7.844,10.374 12.844,10.374 12.844,10.374 C12.844,10.374 12.844,12.374 12.844,12.374 C12.844,12.374 7.844,12.374 7.844,12.374 C7.844,12.374 7.844,10.374 7.844,10.374 ZM7.844,7.37400000000002 C7.844,7.37400000000002 12.844,7.37400000000002 12.844,7.37400000000002 C12.844,7.37400000000002 12.844,9.37400000000002 12.844,9.37400000000002 C12.844,9.37400000000002 7.844,9.37400000000002 7.844,9.37400000000002 C7.844,9.37400000000002 7.844,7.37400000000002 7.844,7.37400000000002 ZM7.844,4.37400000000002 C7.844,4.37400000000002 12.844,4.37400000000002 12.844,4.37400000000002 C12.844,4.37400000000002 12.844,6.37400000000002 12.844,6.37400000000002 C12.844,6.37400000000002 7.844,6.37400000000002 7.844,6.37400000000002 C7.844,6.37400000000002 7.844,4.37400000000002 7.844,4.37400000000002 Z "/></svg>