<?xml version="1.0" encoding="utf-8"?><!DOCTYPE svg PUBLIC "-//W3C//DTD SVG 1.1//EN" "http://www.w3.org/Graphics/SVG/1.1/DTD/svg11.dtd"><svg version="1.1" baseProfile="full" xmlns="http://www.w3.org/2000/svg" xmlns:xlink="http://www.w3.org/1999/xlink" xmlns:ev="http://www.w3.org/2001/xml-events"   height="17px"   width="17px" ><path fill="rgb( 34, 34, 34 )" d="M14.8440000000001,16.375 C14.8440000000001,16.375 2.84400000000005,16.375 2.84400000000005,16.375 C1.73900000000003,16.375 0.84400000000005,15.4789999999998 0.84400000000005,14.375 C0.84400000000005,14.375 1.84400000000005,8.375 1.84400000000005,8.375 C2.10400000000004,7.33500000000004 2.73900000000003,6.375 3.84400000000005,6.375 C3.84400000000005,6.375 4.84400000000005,6.375 4.84400000000005,6.375 C4.84400000000005,6.375 4.84400000000005,4.375 4.84400000000005,4.375 C4.84400000000005,2.16600000000017 6.63499999999999,0.375 8.84400000000005,0.375 C11.053,0.375 12.8440000000001,2.16600000000017 12.8440000000001,4.375 C12.8440000000001,4.375 12.8440000000001,6.375 12.8440000000001,6.375 C12.8440000000001,6.375 13.8440000000001,6.375 13.8440000000001,6.375 C14.948,6.375 15.8440000000001,7.26999999999998 15.8440000000001,8.375 C15.8440000000001,8.375 16.8440000000001,14.375 16.8440000000001,14.375 C16.8440000000001,15.4789999999998 15.948,16.375 14.8440000000001,16.375 ZM10.8440000000001,4.375 C10.8440000000001,3.26999999999998 9.94799999999998,2.375 8.84400000000005,2.375 C7.73900000000003,2.375 6.84400000000005,3.26999999999998 6.84400000000005,4.375 C6.84400000000005,4.375 6.84400000000005,6.375 6.84400000000005,6.375 C6.84400000000005,6.375 10.8440000000001,6.375 10.8440000000001,6.375 C10.8440000000001,6.375 10.8440000000001,4.375 10.8440000000001,4.375 ZM13.855,8.375 C13.855,8.375 12.8440000000001,8.375 12.8440000000001,8.375 C12.8440000000001,8.375 12.8440000000001,9.375 12.8440000000001,9.375 C12.8440000000001,9.92700000000013 12.396,10.375 11.8440000000001,10.375 C11.2910000000001,10.375 10.8440000000001,9.92700000000013 10.8440000000001,9.375 C10.8440000000001,9.375 10.8440000000001,8.375 10.8440000000001,8.375 C10.8440000000001,8.375 6.84400000000005,8.375 6.84400000000005,8.375 C6.84400000000005,8.375 6.84400000000005,9.375 6.84400000000005,9.375 C6.84400000000005,9.92700000000013 6.39599999999996,10.375 5.84400000000005,10.375 C5.29100000000005,10.375 4.84400000000005,9.92700000000013 4.84400000000005,9.375 C4.84400000000005,9.375 4.84400000000005,8.375 4.84400000000005,8.375 C4.84400000000005,8.375 3.83199999999999,8.375 3.83199999999999,8.375 C3.83199999999999,8.375 2.84500000000003,14.375 2.84500000000003,14.375 C2.84500000000003,14.375 14.835,14.375 14.835,14.375 C14.835,14.375 13.855,8.375 13.855,8.375 Z "/></svg>