<?xml version="1.0" encoding="utf-8"?><!DOCTYPE svg PUBLIC "-//W3C//DTD SVG 1.1//EN" "http://www.w3.org/Graphics/SVG/1.1/DTD/svg11.dtd"><svg version="1.1" baseProfile="full" xmlns="http://www.w3.org/2000/svg" xmlns:xlink="http://www.w3.org/1999/xlink" xmlns:ev="http://www.w3.org/2001/xml-events"   height="17px"   width="59px" ><path fill="rgb( 101, 101, 101 )" d="M56.498,12.479 C56.468,12.631 56.467,12.793 56.39,12.93 C56.287,13.122 56.077,13.252 55.8579999999999,13.253 C55.234,13.253 54.61,13.254 53.986,13.252 C53.771,13.253 53.593,13.036 53.63,12.826 C54.239,8.958 54.848,5.09099999999999 55.456,1.22199999999999 C55.47,1.04300000000001 55.625,0.88500000000001 55.807,0.879 C56.503,0.874 57.199,0.878 57.896,0.877 C58.123,0.876 58.311,1.10599999999999 58.259,1.32899999999999 C57.672,5.04600000000001 57.083,8.762 56.498,12.479 ZM52.1950000000001,12.557 C52.176,12.661 52.169,12.77 52.129,12.869 C52.038,13.098 51.801,13.257 51.5549999999999,13.253 C50.913,13.253 50.272,13.253 49.63,13.253 C49.456,13.259 49.294,13.126 49.2619999999999,12.957 C49.24,12.881 49.2619999999999,12.804 49.273,12.729 C49.3,12.566 49.324,12.402 49.354,12.24 C49.074,12.539 48.7329999999999,12.776 48.373,12.969 C47.8339999999999,13.255 47.229,13.417 46.619,13.445 C46.1,13.468 45.574,13.419 45.078,13.263 C44.644,13.127 44.236,12.896 43.9109999999999,12.575 C43.429,12.112 43.1130000000001,11.492 42.9640000000001,10.843 C42.797,10.125 42.833,9.37 43.005,8.65600000000001 C43.292,7.428 44.034,6.30200000000001 45.086,5.59699999999999 C45.5650000000001,5.271 46.107,5.03700000000001 46.672,4.90900000000001 C47.2809999999999,4.76900000000001 47.915,4.771 48.532,4.85299999999999 C49.03,4.92700000000001 49.539,5.06999999999999 49.936,5.39400000000001 C50.109,5.53 50.224,5.71899999999999 50.354,5.89400000000001 C50.385,5.69799999999999 50.414,5.503 50.447,5.30800000000001 C50.471,5.133 50.638,4.99299999999999 50.8150000000001,4.999 C51.528,4.999 52.242,4.999 52.955,4.999 C53.111,4.996 53.26,5.105 53.306,5.254 C53.343,5.357 53.313,5.467 53.298,5.571 C52.9299999999999,7.90000000000001 52.564,10.229 52.1950000000001,12.557 ZM49.947,8.313 C49.855,7.923 49.614,7.56699999999999 49.273,7.352 C48.8390000000001,7.075 48.296,7.024 47.796,7.09699999999999 C47.292,7.175 46.8150000000001,7.419 46.46,7.786 C46.095,8.16 45.865,8.657 45.796,9.173 C45.725,9.629 45.793,10.123 46.062,10.506 C46.309,10.865 46.723,11.081 47.147,11.148 C47.723,11.242 48.3339999999999,11.143 48.837,10.846 C49.241,10.609 49.567,10.245 49.764,9.822 C49.978,9.355 50.071,8.818 49.947,8.313 ZM42.812,6.884 C42.484,7.492 42.001,8.021 41.4109999999999,8.386 C40.735,8.81 39.943,9.01900000000001 39.153,9.09399999999999 C38.67,9.145 38.183,9.121 37.698,9.126 C37.444,9.129 37.189,9.12 36.9349999999999,9.131 C36.658,9.142 36.408,9.36199999999999 36.3630000000001,9.634 C36.198,10.667 36.0359999999999,11.701 35.872,12.735 C35.855,12.83 35.852,12.931 35.806,13.018 C35.736,13.158 35.5839999999999,13.252 35.428,13.252 C34.707,13.254 33.986,13.252 33.265,13.253 C33.1609999999999,13.253 33.05,13.263 32.955,13.212 C32.806,13.138 32.725,12.96 32.761,12.798 C33.349,9.08799999999999 33.934,5.378 34.519,1.66800000000001 C34.544,1.53100000000001 34.549,1.39 34.601,1.26000000000001 C34.676,1.075 34.848,0.93600000000001 35.043,0.89100000000001 C35.24,0.86199999999999 35.441,0.883 35.64,0.876 C36.774,0.877 37.909,0.876 39.043,0.876 C39.5549999999999,0.879 40.0700000000001,0.864 40.579,0.938 C41.276,1.03100000000001 41.982,1.242 42.54,1.68600000000001 C42.88,1.95399999999999 43.144,2.315 43.304,2.717 C43.554,3.34399999999999 43.5650000000001,4.04000000000001 43.481,4.703 C43.377,5.458 43.181,6.211 42.812,6.884 ZM39.8390000000001,3.727 C39.6180000000001,3.52800000000001 39.3200000000001,3.446 39.0309999999999,3.405 C38.581,3.343 38.125,3.363 37.671,3.35899999999999 C37.516,3.355 37.369,3.45999999999999 37.3200000000001,3.607 C37.297,3.68000000000001 37.29,3.75700000000001 37.278,3.83199999999999 C37.13,4.77 36.98,5.708 36.833,6.64700000000001 C37.455,6.637 38.0839999999999,6.682 38.701,6.58 C39.099,6.51300000000001 39.5,6.345 39.756,6.021 C40.058,5.64400000000001 40.1559999999999,5.148 40.178,4.676 C40.191,4.334 40.106,3.95999999999999 39.8390000000001,3.727 ZM25.707,15.876 C25.623,15.987 25.502,16.094 25.3579999999999,16.102 C25.376,16.11 25.4109999999999,16.127 25.429,16.135 C24.598,16.138 23.766,16.142 22.934,16.134 C22.872,16.087 22.798,16.054 22.754,15.988 C22.657,15.858 22.655,15.666 22.754,15.538 C23.378,14.658 24.003,13.778 24.626,12.898 C24.74,12.741 24.848,12.578 24.967,12.423 C24.62,11.38 24.258,10.342 23.9059999999999,9.301 C23.489,8.075 23.071,6.851 22.653,5.625 C22.6180000000001,5.524 22.5700000000001,5.419 22.5940000000001,5.31 C22.619,5.143 22.771,5.003 22.942,4.999 C23.655,4.999 24.369,4.999 25.081,4.999 C25.351,4.996 25.604,5.194 25.673,5.453 C26.088,6.84099999999999 26.505,8.22799999999999 26.92,9.616 C27.9,8.172 28.8819999999999,6.729 29.8630000000001,5.285 C29.9829999999999,5.093 30.213,4.982 30.438,4.999 C31.135,5 31.831,4.999 32.528,4.999 C32.611,4.996 32.6950000000001,5.02200000000001 32.7619999999999,5.074 C32.915,5.18600000000001 32.956,5.422 32.848,5.578 C30.4690000000001,9.012 28.088,12.444 25.707,15.876 ZM20.389,12.716 C20.3630000000001,12.935 20.2089999999999,13.129 20.005,13.209 C19.8819999999999,13.26 19.746,13.254 19.616,13.253 C19.018,13.252 18.42,13.255 17.823,13.251 C17.622,13.245 17.454,13.05 17.476,12.851 C17.5,12.651 17.548,12.455 17.562,12.254 C16.836,12.993 15.8099999999999,13.414 14.778,13.448 C14.28,13.462 13.775,13.414 13.298,13.263 C12.87,13.129 12.468,12.901 12.145,12.588 C11.803,12.263 11.543,11.859 11.367,11.424 C11.115,10.8 11.0359999999999,10.115 11.095,9.44799999999999 C11.1900000000001,8.398 11.586,7.37 12.259,6.554 C12.838,5.84399999999999 13.62,5.297 14.495,5.018 C15.2,4.78400000000001 15.958,4.753 16.691,4.845 C17.216,4.916 17.758,5.06100000000001 18.172,5.40900000000001 C18.338,5.54300000000001 18.451,5.72499999999999 18.574,5.896 C18.606,5.7 18.634,5.504 18.668,5.30800000000001 C18.692,5.134 18.86,4.994 19.035,4.999 C19.749,4.999 20.462,4.999 21.176,4.999 C21.33,4.997 21.477,5.104 21.525,5.25 C21.562,5.34699999999999 21.538,5.45099999999999 21.522,5.55 C21.143,7.93899999999999 20.768,10.328 20.389,12.716 ZM18.15,8.248 C18.0410000000001,7.852 17.773,7.501 17.412,7.303 C16.991,7.069 16.487,7.02800000000001 16.018,7.09699999999999 C15.519,7.17400000000001 15.046,7.41200000000001 14.693,7.77200000000001 C14.336,8.133 14.105,8.61 14.026,9.10899999999999 C13.9450000000001,9.56699999999999 13.994,10.065 14.252,10.461 C14.472,10.806 14.842,11.035 15.2380000000001,11.122 C15.837,11.256 16.487,11.169 17.024,10.866 C17.438,10.632 17.774,10.266 17.977,9.837 C18.206,9.34699999999999 18.301,8.77500000000001 18.15,8.248 ZM10.61,7.518 C10.2670000000001,7.944 9.83500000000004,8.297 9.34900000000005,8.547 C8.61800000000005,8.92700000000001 7.79200000000003,9.086 6.97400000000005,9.121 C6.37699999999995,9.134 5.77999999999997,9.12 5.18200000000002,9.128 C4.97799999999995,9.13200000000001 4.77999999999997,9.23999999999999 4.66999999999996,9.413 C4.58299999999997,9.54000000000001 4.57299999999998,9.696 4.54899999999998,9.843 C4.39499999999998,10.812 4.24400000000003,11.781 4.08900000000006,12.75 C4.04200000000003,13.032 3.77700000000004,13.255 3.49000000000001,13.253 C2.77800000000002,13.253 2.06500000000005,13.253 1.35299999999995,13.253 C1.19500000000005,13.258 1.04399999999998,13.149 0.995,13 C0.93899999999996,12.845 1.01400000000001,12.687 1.024,12.531 C1.60900000000004,8.83199999999999 2.19200000000001,5.133 2.77700000000004,1.434 C2.79999999999995,1.142 3.06600000000003,0.88800000000001 3.35900000000004,0.881 C4.86300000000006,0.869 6.36800000000005,0.879 7.87199999999996,0.876 C8.41800000000001,0.879 8.96400000000006,0.935 9.49199999999996,1.075 C9.97000000000003,1.20399999999999 10.4349999999999,1.41 10.816,1.732 C11.201,2.05200000000001 11.476,2.496 11.6130000000001,2.976 C11.797,3.613 11.772,4.292 11.665,4.941 C11.514,5.863 11.203,6.78400000000001 10.61,7.518 ZM8.33100000000002,4.14700000000001 C8.25599999999997,3.91200000000001 8.08799999999997,3.711 7.87099999999998,3.593 C7.61599999999999,3.453 7.32299999999998,3.405 7.03700000000003,3.38 C6.65700000000004,3.351 6.27499999999998,3.361 5.89300000000003,3.35899999999999 C5.75800000000004,3.355 5.62599999999998,3.434 5.56399999999996,3.553 C5.52099999999996,3.63 5.51700000000005,3.71899999999999 5.50199999999995,3.804 C5.35199999999998,4.752 5.202,5.699 5.05200000000002,6.64700000000001 C5.54300000000001,6.642 6.03499999999997,6.661 6.52499999999998,6.628 C6.96000000000004,6.596 7.41800000000001,6.509 7.76700000000005,6.229 C8.09199999999998,5.974 8.26499999999999,5.57599999999999 8.34100000000001,5.18000000000001 C8.40300000000002,4.84 8.43799999999999,4.48099999999999 8.33100000000002,4.14700000000001 Z "/></svg>