<?xml version="1.0" encoding="utf-8"?><!DOCTYPE svg PUBLIC "-//W3C//DTD SVG 1.1//EN" "http://www.w3.org/Graphics/SVG/1.1/DTD/svg11.dtd"><svg version="1.1" baseProfile="full" xmlns="http://www.w3.org/2000/svg" xmlns:xlink="http://www.w3.org/1999/xlink" xmlns:ev="http://www.w3.org/2001/xml-events"   height="17px"   width="17px" ><path fill="rgb( 207, 207, 207 )" d="M14.844,8.375 C14.844,8.375 14.511,8.375 14.511,8.375 C14.511,8.375 9.84399999999999,11.375 9.84399999999999,11.375 C9.84399999999999,11.375 9.17700000000001,8.375 9.17700000000001,8.375 C9.17700000000001,8.375 8.84399999999999,8.375 8.84399999999999,8.375 C7.739,8.375 6.84399999999999,7.47900000000004 6.84399999999999,6.375 C6.84399999999999,6.375 6.84399999999999,2.375 6.84399999999999,2.375 C6.84399999999999,1.26999999999998 7.739,0.375 8.84399999999999,0.375 C8.84399999999999,0.375 14.844,0.375 14.844,0.375 C15.948,0.375 16.844,1.26999999999998 16.844,2.375 C16.844,2.375 16.844,6.375 16.844,6.375 C16.844,7.47900000000004 15.948,8.375 14.844,8.375 ZM14.844,2.38199999999995 C14.844,2.38199999999995 8.84399999999999,2.38199999999995 8.84399999999999,2.38199999999995 C8.84399999999999,2.38199999999995 8.84399999999999,6.38099999999997 8.84399999999999,6.38099999999997 C8.84399999999999,6.38099999999997 10.871,6.38099999999997 10.871,6.38099999999997 C10.871,6.38099999999997 11.39,8.399 11.39,8.399 C11.39,8.399 13.77,6.38099999999997 13.77,6.38099999999997 C13.77,6.38099999999997 14.844,6.38099999999997 14.844,6.38099999999997 C14.844,6.38099999999997 14.844,2.38199999999995 14.844,2.38199999999995 ZM2.84399999999999,11.381 C2.84399999999999,11.381 4.871,11.381 4.871,11.381 C4.871,11.381 5.39,13.399 5.39,13.399 C5.39,13.399 7.77,11.381 7.77,11.381 C7.77,11.381 8.598,11.381 8.598,11.381 C8.598,11.381 9.03700000000001,13.355 9.03700000000001,13.355 C8.97199999999999,13.362 8.91,13.375 8.84399999999999,13.375 C8.84399999999999,13.375 8.51000000000001,13.375 8.51000000000001,13.375 C8.51000000000001,13.375 3.84399999999999,16.375 3.84399999999999,16.375 C3.84399999999999,16.375 3.17700000000001,13.375 3.17700000000001,13.375 C3.17700000000001,13.375 2.84399999999999,13.375 2.84399999999999,13.375 C1.739,13.375 0.84399999999999,12.479 0.84399999999999,11.375 C0.84399999999999,11.375 0.84399999999999,7.375 0.84399999999999,7.375 C0.84399999999999,6.26999999999998 1.739,5.375 2.84399999999999,5.375 C2.84399999999999,5.375 5.84399999999999,5.375 5.84399999999999,5.375 C5.84399999999999,5.375 5.84399999999999,7.37900000000002 5.84399999999999,7.37900000000002 C5.84399999999999,7.38 5.84399999999999,7.38099999999997 5.84399999999999,7.38199999999995 C5.84399999999999,7.38199999999995 2.84399999999999,7.38199999999995 2.84399999999999,7.38199999999995 C2.84399999999999,7.38199999999995 2.84399999999999,11.381 2.84399999999999,11.381 Z "/></svg>