<?xml version="1.0" encoding="utf-8"?><!DOCTYPE svg PUBLIC "-//W3C//DTD SVG 1.1//EN" "http://www.w3.org/Graphics/SVG/1.1/DTD/svg11.dtd"><svg version="1.1" baseProfile="full" xmlns="http://www.w3.org/2000/svg" xmlns:xlink="http://www.w3.org/1999/xlink" xmlns:ev="http://www.w3.org/2001/xml-events"   height="16px"   width="30px" ><path fill="rgb( 104, 191, 123 )" d="M29.038,9.24900000000002 C29.038,9.24900000000002 23.538,14.592 23.538,14.592 C22.814,15.295 21.756,15.537 20.79,15.25 C20.485,15.324 20.171,15.375 19.844,15.375 C19.844,15.375 4.84399999999999,15.375 4.84399999999999,15.375 C2.63499999999999,15.375 0.84399999999999,13.5839999999999 0.84399999999999,11.375 C0.84399999999999,11.375 0.84399999999999,4.375 0.84399999999999,4.375 C0.84399999999999,2.16600000000005 2.63499999999999,0.375 4.84399999999999,0.375 C4.84399999999999,0.375 19.844,0.375 19.844,0.375 C20.154,0.375 20.452,0.41800000000001 20.742,0.48500000000001 C21.721,0.17600000000004 22.802,0.41499999999996 23.538,1.12800000000004 C23.538,1.12800000000004 29.038,6.471 29.038,6.471 C29.575,6.99300000000005 29.844,7.67600000000004 29.844,8.36000000000001 C29.844,9.04300000000001 29.575,8.72699999999998 29.038,9.24900000000002 Z "/><path fill="rgb( 255, 255, 255 )" d="M19.849,11.375 C19.849,11.375 18.634,11.375 18.634,11.375 C18.634,11.375 18.044,6.77300000000002 18.044,6.77300000000002 C18.044,6.77300000000002 17.466,11.375 17.466,11.375 C17.466,11.375 16.251,11.375 16.251,11.375 C16.251,11.375 15.278,4.34400000000005 15.278,4.34400000000005 C15.278,4.34400000000005 16.489,4.34400000000005 16.489,4.34400000000005 C16.489,4.34400000000005 16.927,9 16.927,9 C16.927,9 17.528,4.34400000000005 17.528,4.34400000000005 C17.528,4.34400000000005 18.571,4.34400000000005 18.571,4.34400000000005 C18.571,4.34400000000005 19.161,8.97299999999996 19.161,8.97299999999996 C19.161,8.97299999999996 19.618,4.34400000000005 19.618,4.34400000000005 C19.618,4.34400000000005 20.833,4.34400000000005 20.833,4.34400000000005 C20.833,4.34400000000005 19.849,11.375 19.849,11.375 ZM11.373,4.34400000000005 C11.373,4.34400000000005 14.306,4.34400000000005 14.306,4.34400000000005 C14.306,4.34400000000005 14.306,5.32000000000005 14.306,5.32000000000005 C14.306,5.32000000000005 12.795,5.32000000000005 12.795,5.32000000000005 C12.795,5.32000000000005 12.795,7.23400000000004 12.795,7.23400000000004 C12.795,7.23400000000004 13.865,7.23400000000004 13.865,7.23400000000004 C13.865,7.23400000000004 13.865,8.23400000000004 13.865,8.23400000000004 C13.865,8.23400000000004 12.795,8.23400000000004 12.795,8.23400000000004 C12.795,8.23400000000004 12.795,10.398 12.795,10.398 C12.795,10.398 14.306,10.398 14.306,10.398 C14.306,10.398 14.306,11.375 14.306,11.375 C14.306,11.375 11.373,11.375 11.373,11.375 C11.373,11.375 11.373,4.34400000000005 11.373,4.34400000000005 ZM7.21300000000002,7.47299999999996 C7.21300000000002,7.47299999999996 7.21300000000002,11.375 7.21300000000002,11.375 C7.21300000000002,11.375 5.99099999999999,11.375 5.99099999999999,11.375 C5.99099999999999,11.375 5.99099999999999,4.34000000000003 5.99099999999999,4.34000000000003 C5.99099999999999,4.34000000000003 7.01400000000001,4.34000000000003 7.01400000000001,4.34000000000003 C7.01400000000001,4.34000000000003 8.55700000000002,8.01900000000001 8.55700000000002,8.01900000000001 C8.55700000000002,8.01900000000001 8.55700000000002,4.34000000000003 8.55700000000002,4.34000000000003 C8.55700000000002,4.34000000000003 9.73700000000002,4.34000000000003 9.73700000000002,4.34000000000003 C9.73700000000002,4.34000000000003 9.73700000000002,11.375 9.73700000000002,11.375 C9.73700000000002,11.375 8.75200000000001,11.375 8.75200000000001,11.375 C8.75200000000001,11.375 7.21300000000002,7.47299999999996 7.21300000000002,7.47299999999996 Z "/></svg>