<?xml version="1.0" encoding="utf-8"?><!DOCTYPE svg PUBLIC "-//W3C//DTD SVG 1.1//EN" "http://www.w3.org/Graphics/SVG/1.1/DTD/svg11.dtd"><svg version="1.1" baseProfile="full" xmlns="http://www.w3.org/2000/svg" xmlns:xlink="http://www.w3.org/1999/xlink" xmlns:ev="http://www.w3.org/2001/xml-events"   height="20px"   width="97px" ><defs><filter id="Filter_0">  <feFlood flood-color="rgb( 255, 255, 255 )" flood-opacity="1" result="floodOut" />  <feComposite operator="atop" in="floodOut" in2="SourceGraphic" result="compOut" />  <feBlend mode="normal" in="compOut" in2="SourceGraphic" /></filter></defs><g filter="url(#Filter_0)"><path opacity="0.302" fill="rgb( 213, 213, 213 )" d="M95.735,13.711 C95.535,13.919 95.267,14.023 94.931,14.023 C94.931,14.023 86.795,14.023 86.795,14.023 C86.923,15.111 87.331,15.975 88.019,16.614 C88.707,17.255 89.667,17.575 90.899,17.575 C92.131,17.575 93.163,17.367 93.995,16.951 C94.283,16.807 94.531,16.735 94.739,16.735 C94.947,16.735 95.147,16.823 95.339,16.999 C95.531,17.175 95.627,17.375 95.627,17.599 C95.627,18.015 95.455,18.315 95.111,18.499 C94.767,18.683 94.459,18.839 94.187,18.967 C93.915,19.095 93.619,19.206 93.299,19.302 C92.579,19.51 91.747,19.615 90.803,19.615 C88.835,19.615 87.307,19.063 86.219,17.959 C85.131,16.855 84.587,15.287 84.587,13.255 C84.587,11.495 85.043,10.031 85.955,8.863 C86.979,7.551 88.435,6.89400000000001 90.323,6.89400000000001 C92.115,6.89400000000001 93.531,7.503 94.571,8.718 C95.547,9.855 96.035,11.263 96.035,12.943 C96.035,13.247 95.935,13.503 95.735,13.711 ZM92.627,9.559 C91.987,9.015 91.219,8.742 90.323,8.742 C88.899,8.742 87.859,9.375 87.203,10.639 C86.963,11.087 86.827,11.622 86.795,12.247 C86.795,12.247 93.875,12.247 93.875,12.247 C93.811,11.111 93.395,10.215 92.627,9.559 ZM74.843,9.00700000000001 C74.843,9.00700000000001 74.723,9.00700000000001 74.723,9.00700000000001 C73.923,9.00700000000001 73.207,9.203 72.575,9.595 C71.943,9.98699999999999 71.419,10.494 71.003,11.119 C71.003,11.119 71.003,18.415 71.003,18.415 C71.003,18.719 70.895,18.975 70.679,19.182 C70.463,19.39 70.203,19.495 69.899,19.495 C69.595,19.495 69.339,19.39 69.131,19.182 C68.923,18.975 68.819,18.719 68.819,18.415 C68.819,18.415 68.819,8.119 68.819,8.119 C68.819,7.815 68.923,7.55500000000001 69.131,7.339 C69.339,7.122 69.595,7.015 69.899,7.015 C70.203,7.015 70.463,7.122 70.679,7.339 C70.895,7.55500000000001 71.003,7.815 71.003,8.119 C71.003,8.119 71.003,9.151 71.003,9.151 C72.123,7.64700000000001 73.379,6.89400000000001 74.771,6.89400000000001 C74.771,6.89400000000001 74.891,6.89400000000001 74.891,6.89400000000001 C75.195,6.89400000000001 75.447,6.999 75.647,7.20699999999999 C75.847,7.41500000000001 75.947,7.675 75.947,7.98699999999999 C75.947,8.29900000000001 75.843,8.547 75.635,8.73099999999999 C75.427,8.91500000000001 75.163,9.00700000000001 74.843,9.00700000000001 ZM56.819,19.495 C56.515,19.495 56.259,19.39 56.051,19.182 C55.843,18.975 55.739,18.719 55.739,18.415 C55.739,18.415 55.739,17.791 55.739,17.791 C55.307,18.239 54.727,18.655 53.999,19.039 C53.271,19.423 52.347,19.615 51.227,19.615 C50.123,19.615 49.203,19.294 48.467,18.655 C47.699,17.983 47.315,17.103 47.315,16.014 C47.315,14.831 47.763,13.903 48.659,13.231 C49.635,12.495 51.027,12.126 52.835,12.126 C52.835,12.126 55.739,12.126 55.739,12.126 C55.739,12.126 55.739,11.934 55.739,11.934 C55.739,10.863 55.475,10.099 54.947,9.643 C54.419,9.187 53.611,8.959 52.523,8.959 C51.595,8.959 50.531,9.151 49.331,9.535 C49.203,9.56699999999999 49.059,9.583 48.899,9.583 C48.739,9.583 48.571,9.499 48.395,9.331 C48.219,9.163 48.131,8.90300000000001 48.131,8.55 C48.131,8.199 48.339,7.935 48.755,7.758 C50.099,7.18300000000001 51.491,6.89400000000001 52.931,6.89400000000001 C54.563,6.89400000000001 55.827,7.39 56.723,8.38200000000001 C57.523,9.247 57.923,10.327 57.923,11.622 C57.923,11.622 57.923,18.415 57.923,18.415 C57.923,18.719 57.815,18.975 57.599,19.182 C57.383,19.39 57.123,19.495 56.819,19.495 ZM55.739,13.879 C55.739,13.879 53.123,13.879 53.123,13.879 C51.987,13.879 51.099,14.023 50.459,14.311 C49.819,14.599 49.499,15.087 49.499,15.775 C49.499,17.055 50.347,17.695 52.043,17.695 C52.795,17.695 53.495,17.511 54.143,17.143 C54.791,16.775 55.323,16.359 55.739,15.894 C55.739,15.894 55.739,13.879 55.739,13.879 ZM35.147,18.487 C35.051,18.759 34.875,18.995 34.619,19.195 C34.363,19.395 34.075,19.495 33.755,19.495 C33.435,19.495 33.147,19.395 32.891,19.195 C32.635,18.995 32.451,18.751 32.339,18.463 C32.339,18.463 29.795,10.519 29.795,10.519 C29.795,10.519 27.251,18.463 27.251,18.463 C27.139,18.751 26.955,18.995 26.699,19.195 C26.443,19.395 26.155,19.495 25.835,19.495 C25.515,19.495 25.227,19.395 24.971,19.195 C24.715,18.995 24.539,18.759 24.443,18.487 C24.443,18.487 21.035,8.503 21.035,8.503 C20.987,8.358 20.963,8.179 20.963,7.96299999999999 C20.963,7.747 21.067,7.535 21.275,7.327 C21.483,7.119 21.723,7.015 21.995,7.015 C22.555,7.015 22.899,7.23099999999999 23.027,7.66200000000001 C23.027,7.66200000000001 25.835,16.903 25.835,16.903 C25.835,16.903 28.619,7.879 28.619,7.879 C28.699,7.623 28.847,7.41500000000001 29.063,7.255 C29.279,7.095 29.523,7.015 29.795,7.015 C30.067,7.015 30.311,7.095 30.527,7.255 C30.743,7.41500000000001 30.891,7.623 30.971,7.879 C30.971,7.879 33.755,16.903 33.755,16.903 C33.755,16.903 36.563,7.66200000000001 36.563,7.66200000000001 C36.691,7.23099999999999 37.035,7.015 37.595,7.015 C37.867,7.015 38.107,7.119 38.315,7.327 C38.523,7.535 38.627,7.747 38.627,7.96299999999999 C38.627,8.179 38.603,8.358 38.555,8.503 C38.555,8.503 35.147,18.487 35.147,18.487 ZM29.844,4.374 C28.739,4.374 27.844,3.479 27.844,2.375 C27.844,1.27 28.739,0.375 29.844,0.375 C30.948,0.375 31.844,1.27 31.844,2.375 C31.844,3.479 30.948,4.374 29.844,4.374 ZM10.26,19.495 C9.956,19.495 9.699,19.39 9.492,19.182 C9.28400000000001,18.975 9.18000000000001,18.719 9.18000000000001,18.415 C9.18000000000001,18.415 9.18000000000001,17.791 9.18000000000001,17.791 C8.748,18.239 8.167,18.655 7.44,19.039 C6.711,19.423 5.78700000000001,19.615 4.66800000000001,19.615 C3.56399999999999,19.615 2.643,19.294 1.908,18.655 C1.14,17.983 0.756,17.103 0.756,16.014 C0.756,14.831 1.203,13.903 2.09999999999999,13.231 C3.075,12.495 4.467,12.126 6.276,12.126 C6.276,12.126 9.18000000000001,12.126 9.18000000000001,12.126 C9.18000000000001,12.126 9.18000000000001,11.934 9.18000000000001,11.934 C9.18000000000001,10.863 8.916,10.099 8.38800000000001,9.643 C7.86,9.187 7.051,8.959 5.964,8.959 C5.035,8.959 3.97199999999999,9.151 2.77200000000001,9.535 C2.643,9.56699999999999 2.499,9.583 2.34,9.583 C2.179,9.583 2.011,9.499 1.836,9.331 C1.65900000000001,9.163 1.572,8.90300000000001 1.572,8.55 C1.572,8.199 1.779,7.935 2.196,7.758 C3.54000000000001,7.18300000000001 4.932,6.89400000000001 6.372,6.89400000000001 C8.004,6.89400000000001 9.267,7.39 10.164,8.38200000000001 C10.964,9.247 11.364,10.327 11.364,11.622 C11.364,11.622 11.364,18.415 11.364,18.415 C11.364,18.719 11.256,18.975 11.04,19.182 C10.824,19.39 10.563,19.495 10.26,19.495 ZM9.18000000000001,13.879 C9.18000000000001,13.879 6.56399999999999,13.879 6.56399999999999,13.879 C5.42700000000001,13.879 4.539,14.023 3.90000000000001,14.311 C3.259,14.599 2.94,15.087 2.94,15.775 C2.94,17.055 3.78700000000001,17.695 5.48399999999999,17.695 C6.235,17.695 6.93600000000001,17.511 7.584,17.143 C8.232,16.775 8.76300000000001,16.359 9.18000000000001,15.894 C9.18000000000001,15.894 9.18000000000001,13.879 9.18000000000001,13.879 Z "/></g></svg>