<?xml version="1.0" encoding="utf-8"?><!DOCTYPE svg PUBLIC "-//W3C//DTD SVG 1.1//EN" "http://www.w3.org/Graphics/SVG/1.1/DTD/svg11.dtd"><svg version="1.1" baseProfile="full" xmlns="http://www.w3.org/2000/svg" xmlns:xlink="http://www.w3.org/1999/xlink" xmlns:ev="http://www.w3.org/2001/xml-events"   height="21px"   width="35px" ><path fill="rgb( 101, 101, 101 )" d="M33.788,15.875 C33.788,15.875 33.826,15.875 33.826,15.875 C33.838,15.875 33.855,15.874 33.867,15.88 C33.877,15.886 33.883,15.897 33.883,15.909 C33.883,15.922 33.878,15.936 33.867,15.942 C33.855,15.948 33.8390000000001,15.948 33.827,15.948 C33.827,15.948 33.788,15.948 33.788,15.948 C33.788,15.948 33.788,15.875 33.788,15.875 C33.788,15.875 33.788,15.875 33.788,15.875 ZM33.788,15.996 C33.788,15.996 33.838,15.996 33.838,15.996 C33.838,15.996 33.8819999999999,16.108 33.8819999999999,16.108 C33.8819999999999,16.108 33.957,16.108 33.957,16.108 C33.957,16.108 33.903,15.983 33.903,15.983 C33.934,15.971 33.954,15.942 33.954,15.911 C33.954,15.882 33.9400000000001,15.853 33.918,15.838 C33.895,15.822 33.869,15.822 33.843,15.822 C33.843,15.822 33.721,15.822 33.721,15.822 C33.721,15.822 33.721,16.108 33.721,16.108 C33.721,16.108 33.788,16.108 33.788,16.108 C33.788,16.108 33.788,15.996 33.788,15.996 C33.788,15.996 33.788,15.996 33.788,15.996 ZM33.8339999999999,16.213 C33.972,16.213 34.0839999999999,16.102 34.0839999999999,15.967 C34.0839999999999,15.831 33.972,15.721 33.8339999999999,15.721 C33.696,15.721 33.583,15.831 33.583,15.967 C33.583,16.102 33.696,16.213 33.8339999999999,16.213 C33.8339999999999,16.213 33.8339999999999,16.213 33.8339999999999,16.213 ZM33.504,15.967 C33.504,15.788 33.652,15.643 33.8339999999999,15.643 C34.015,15.643 34.162,15.788 34.162,15.967 C34.162,16.144 34.015,16.291 33.8339999999999,16.291 C33.652,16.291 33.504,16.144 33.504,15.967 C33.504,15.967 33.504,15.967 33.504,15.967 ZM33.788,12.567 C33.788,12.567 33.823,12.567 33.823,12.567 C33.836,12.567 33.855,12.564 33.867,12.57 C33.877,12.578 33.883,12.589 33.883,12.6 C33.883,12.612 33.878,12.626 33.867,12.633 C33.854,12.639 33.8390000000001,12.639 33.826,12.639 C33.826,12.639 33.788,12.639 33.788,12.639 C33.788,12.639 33.788,12.567 33.788,12.567 C33.788,12.567 33.788,12.567 33.788,12.567 ZM33.788,12.689 C33.788,12.689 33.838,12.689 33.838,12.689 C33.838,12.689 33.8819999999999,12.798 33.8819999999999,12.798 C33.8819999999999,12.798 33.957,12.798 33.957,12.798 C33.957,12.798 33.903,12.675 33.903,12.675 C33.934,12.662 33.954,12.633 33.954,12.601 C33.954,12.573 33.9400000000001,12.544 33.917,12.531 C33.895,12.516 33.869,12.516 33.843,12.516 C33.843,12.516 33.721,12.516 33.721,12.516 C33.721,12.516 33.721,12.798 33.721,12.798 C33.721,12.798 33.788,12.798 33.788,12.798 C33.788,12.798 33.788,12.689 33.788,12.689 C33.788,12.689 33.788,12.689 33.788,12.689 ZM33.582,12.658 C33.582,12.523 33.694,12.412 33.832,12.412 C33.972,12.412 34.082,12.523 34.082,12.658 C34.082,12.792 33.972,12.903 33.832,12.903 C33.694,12.903 33.582,12.792 33.582,12.658 C33.582,12.658 33.582,12.658 33.582,12.658 ZM33.832,12.981 C34.015,12.981 34.162,12.835 34.162,12.658 C34.162,12.479 34.015,12.335 33.832,12.335 C33.65,12.335 33.504,12.479 33.504,12.658 C33.504,12.835 33.65,12.981 33.832,12.981 C33.832,12.981 33.832,12.981 33.832,12.981 ZM19.0549999999999,8.89100000000001 C18.923,10.105 18.6900000000001,11.331 18.5069999999999,12.544 C18.5069999999999,12.544 18.46,12.807 18.46,12.807 C18.46,12.807 19.51,12.807 19.51,12.807 C19.885,10.412 19.975,9.94499999999999 20.563,10.004 C20.657,9.51300000000001 20.832,9.083 20.961,8.867 C20.523,8.779 20.276,9.02200000000001 19.957,9.485 C19.981,9.286 20.028,9.09 20.018,8.89100000000001 C20.018,8.89100000000001 19.0549999999999,8.89100000000001 19.0549999999999,8.89100000000001 C19.0549999999999,8.89100000000001 19.0549999999999,8.89100000000001 19.0549999999999,8.89100000000001 ZM28.221,8.89100000000001 C28.091,10.105 27.8579999999999,11.331 27.675,12.544 C27.675,12.544 27.626,12.807 27.626,12.807 C27.626,12.807 28.675,12.807 28.675,12.807 C29.051,10.412 29.1420000000001,9.94499999999999 29.729,10.004 C29.824,9.51300000000001 29.997,9.083 30.129,8.867 C29.689,8.779 29.443,9.02200000000001 29.122,9.485 C29.148,9.286 29.194,9.09 29.186,8.89100000000001 C29.186,8.89100000000001 28.221,8.89100000000001 28.221,8.89100000000001 C28.221,8.89100000000001 28.221,8.89100000000001 28.221,8.89100000000001 ZM30.921,11.131 C30.921,10.361 31.2569999999999,9.815 31.734,9.815 C32.0940000000001,9.815 32.289,10.085 32.289,10.582 C32.289,11.359 31.946,11.903 31.457,11.903 C31.1,11.903 30.921,11.643 30.921,11.131 C30.921,11.131 30.921,11.131 30.921,11.131 ZM33.804,7.99299999999999 C33.804,7.99299999999999 32.769,7.99299999999999 32.769,7.99299999999999 C32.769,7.99299999999999 32.537,9.383 32.537,9.383 C32.249,9.01300000000001 31.942,8.84999999999999 31.5359999999999,8.84999999999999 C30.61,8.84999999999999 29.829,9.94799999999999 29.829,11.251 C29.829,12.229 30.332,12.876 31.095,12.876 C31.48,12.876 31.774,12.744 32.062,12.442 C32.062,12.442 32.013,12.807 32.013,12.807 C32.013,12.807 33.005,12.807 33.005,12.807 C33.005,12.807 33.804,7.99299999999999 33.804,7.99299999999999 C33.804,7.99299999999999 33.804,7.99299999999999 33.804,7.99299999999999 ZM10.42,10.13 C10.42,10.625 10.664,10.966 11.2190000000001,11.223 C11.6420000000001,11.419 11.7089999999999,11.477 11.7089999999999,11.655 C11.7089999999999,11.9 11.521,12.009 11.107,12.009 C10.794,12.009 10.502,11.962 10.167,11.855 C10.167,11.855 10.029,12.718 10.023,12.76 C10.26,12.81 10.474,12.857 11.1130000000001,12.876 C12.221,12.876 12.732,12.461 12.732,11.567 C12.732,11.028 12.518,10.712 11.991,10.475 C11.553,10.276 11.502,10.232 11.502,10.05 C11.502,9.837 11.676,9.729 12.016,9.729 C12.222,9.729 12.503,9.751 12.769,9.788 C12.769,9.788 12.918,8.88 12.918,8.88 C12.647,8.839 12.235,8.80500000000001 11.995,8.80500000000001 C10.822,8.80500000000001 10.4160000000001,9.40600000000001 10.42,10.13 C10.42,10.13 10.42,10.13 10.42,10.13 ZM17.39,10.394 C17.396,10.313 17.5,9.69499999999999 16.904,9.69499999999999 C16.573,9.69499999999999 16.336,9.94499999999999 16.2380000000001,10.394 C16.2380000000001,10.394 17.39,10.394 17.39,10.394 C17.39,10.394 17.39,10.394 17.39,10.394 ZM18.15,11.742 C17.776,11.914 17.439,11.99 17.066,11.99 C16.4589999999999,11.99 16.0890000000001,11.752 16.159,11.185 C16.159,11.185 18.236,11.185 18.236,11.185 C18.326,10.789 18.364,10.51 18.364,10.222 C18.364,9.355 17.8150000000001,8.80500000000001 16.955,8.80500000000001 C15.905,8.80500000000001 15.131,9.79000000000001 15.131,11.128 C15.131,12.275 15.739,12.874 16.907,12.876 C17.273,12.877 17.6180000000001,12.824 17.975,12.716 C17.975,12.716 18.15,11.742 18.15,11.742 C18.15,11.742 18.15,11.742 18.15,11.742 ZM14.77,11.882 C14.699,11.906 14.606,11.917 14.487,11.917 C14.2380000000001,11.917 14.127,11.829 14.127,11.629 C14.13,11.505 14.303,10.578 14.425,9.833 C14.425,9.833 14.96,9.833 14.96,9.833 C14.96,9.833 15.103,8.89100000000001 15.103,8.89100000000001 C15.103,8.89100000000001 14.568,8.89100000000001 14.568,8.89100000000001 C14.568,8.89100000000001 14.689,8.29900000000001 14.689,8.29900000000001 C14.689,8.29900000000001 13.647,8.29900000000001 13.647,8.29900000000001 C13.647,8.29900000000001 13.253,10.605 13.192,10.972 C13.126,11.388 13.0410000000001,11.842 13.048,12.016 C13.048,12.572 13.341,12.876 13.877,12.876 C14.12,12.876 14.343,12.837 14.63,12.748 C14.63,12.748 14.77,11.882 14.77,11.882 C14.77,11.882 14.77,11.882 14.77,11.882 ZM27.4109999999999,10.728 C27.4640000000001,10.401 27.499,10.153 27.496,9.952 C27.497,9.202 27.021,8.80500000000001 26.12,8.80500000000001 C25.732,8.80500000000001 25.3869999999999,8.861 24.865,9.012 C24.865,9.012 24.73,9.827 24.7190000000001,9.892 C24.894,9.836 25.316,9.711 25.829,9.71599999999999 C26.319,9.71599999999999 26.502,9.812 26.502,10.072 C26.502,10.141 26.4930000000001,10.198 26.461,10.326 C26.3049999999999,10.306 26.152,10.296 26.034,10.296 C24.869,10.296 24.193,10.85 24.193,11.805 C24.193,12.439 24.582,12.876 25.15,12.876 C25.63,12.876 25.984,12.722 26.25,12.402 C26.25,12.402 26.229,12.807 26.229,12.807 C26.229,12.807 26.958,12.807 27.098,12.807 C27.125,12.512 27.321,11.294 27.4109999999999,10.728 C27.4109999999999,10.728 27.4109999999999,10.728 27.4109999999999,10.728 ZM26.335,11.063 C26.226,11.051 26.177,11.047 26.102,11.047 C25.5069999999999,11.047 25.207,11.247 25.207,11.642 C25.207,11.887 25.353,12.042 25.583,12.042 C26.009,12.042 26.317,11.642 26.335,11.063 C26.335,11.063 26.335,11.063 26.335,11.063 ZM23.314,7.873 C21.924,7.873 20.952,9.074 20.952,10.796 C20.952,12.078 21.655,12.876 22.784,12.876 C23.075,12.876 23.325,12.837 23.711,12.733 C23.711,12.733 23.895,11.635 23.895,11.635 C23.547,11.805 23.2619999999999,11.883 23.004,11.883 C22.395,11.883 22.026,11.442 22.026,10.711 C22.026,9.652 22.573,8.907 23.357,8.907 C23.649,8.907 23.92,8.982 24.295,9.167 C24.295,9.167 24.466,8.121 24.466,8.121 C24.312,8.06399999999999 23.771,7.873 23.314,7.873 C23.314,7.873 23.314,7.873 23.314,7.873 ZM9.928,10.728 C9.98000000000002,10.401 10.014,10.153 10.0119999999999,9.952 C10.014,9.202 9.53599999999994,8.80500000000001 8.63599999999997,8.80500000000001 C8.24900000000002,8.80500000000001 7.90300000000002,8.861 7.38,9.012 C7.38,9.012 7.24599999999998,9.827 7.23599999999999,9.892 C7.40999999999997,9.836 7.83299999999997,9.711 8.34500000000003,9.71599999999999 C8.83500000000004,9.71599999999999 9.01700000000005,9.812 9.01700000000005,10.072 C9.01700000000005,10.141 9.00900000000001,10.198 8.97799999999995,10.326 C8.82100000000003,10.306 8.66800000000001,10.296 8.54999999999995,10.296 C7.38599999999997,10.296 6.70899999999995,10.85 6.70899999999995,11.805 C6.70899999999995,12.439 7.09900000000005,12.876 7.66600000000005,12.876 C8.14700000000005,12.876 8.50099999999998,12.722 8.76599999999996,12.402 C8.76599999999996,12.402 8.74599999999998,12.807 8.74599999999998,12.807 C8.74599999999998,12.807 9.47500000000002,12.807 9.61500000000001,12.807 C9.64200000000005,12.512 9.83799999999997,11.294 9.928,10.728 C9.928,10.728 9.928,10.728 9.928,10.728 ZM8.851,11.063 C8.74099999999999,11.051 8.69299999999998,11.047 8.61800000000005,11.047 C8.024,11.047 7.72199999999998,11.247 7.72199999999998,11.642 C7.72199999999998,11.887 7.86900000000003,12.042 8.09900000000005,12.042 C8.52599999999995,12.042 8.83399999999995,11.642 8.851,11.063 C8.851,11.063 8.851,11.063 8.851,11.063 ZM6.90200000000004,7.99299999999999 C6.90200000000004,7.99299999999999 5.27300000000002,7.99299999999999 5.27300000000002,7.99299999999999 C5.27300000000002,7.99299999999999 4.25599999999997,10.973 4.25599999999997,10.973 C4.25599999999997,10.973 4.21400000000006,7.99299999999999 4.21400000000006,7.99299999999999 C4.21400000000006,7.99299999999999 2.70600000000002,7.99299999999999 2.70600000000002,7.99299999999999 C2.70600000000002,7.99299999999999 1.88699999999994,12.807 1.88699999999994,12.807 C1.88699999999994,12.807 2.86699999999996,12.807 2.86699999999996,12.807 C2.86699999999996,12.807 3.5,9.127 3.5,9.127 C3.5,9.127 3.58799999999997,12.807 3.58799999999997,12.807 C3.58799999999997,12.807 4.30200000000002,12.807 4.30200000000002,12.807 C4.30200000000002,12.807 5.64400000000001,9.10599999999999 5.64400000000001,9.10599999999999 C5.64400000000001,9.10599999999999 5.04200000000003,12.807 5.04200000000003,12.807 C5.04200000000003,12.807 6.09199999999998,12.807 6.09199999999998,12.807 C6.09199999999998,12.807 6.90200000000004,7.99299999999999 6.90200000000004,7.99299999999999 C6.90200000000004,7.99299999999999 6.90200000000004,7.99299999999999 6.90200000000004,7.99299999999999 ZM34.837,10.373 C34.837,15.892 30.285,20.367 24.669,20.367 C22.3680000000001,20.367 20.246,19.615 18.542,18.349 C18.542,18.349 18.542,18.349 18.543,18.349 C19.973,17.044 21.051,15.375 21.626,13.492 C21.626,13.492 20.679,13.492 20.679,13.492 C20.124,15.158 19.135,16.631 17.8440000000001,17.781 C16.552,16.631 15.564,15.158 15.008,13.492 C15.008,13.492 14.062,13.492 14.062,13.492 C14.636,15.375 15.715,17.044 17.144,18.349 C17.144,18.349 17.144,18.349 17.144,18.349 C15.441,19.615 13.319,20.367 11.0170000000001,20.367 C5.40200000000004,20.367 0.84900000000005,15.892 0.84900000000005,10.373 C0.84900000000005,4.85599999999999 5.40200000000004,0.38200000000001 11.0170000000001,0.38200000000001 C13.319,0.38200000000001 15.441,1.13200000000001 17.144,2.399 C17.144,2.399 17.144,2.399 17.144,2.399 C15.625,3.785 14.499,5.584 13.9589999999999,7.613 C13.9589999999999,7.613 14.895,7.613 14.895,7.613 C15.424,5.801 16.46,4.2 17.8440000000001,2.968 C19.227,4.2 20.263,5.801 20.793,7.613 C20.793,7.613 21.729,7.613 21.729,7.613 C21.188,5.584 20.063,3.785 18.543,2.399 C18.542,2.399 18.542,2.399 18.542,2.399 C20.246,1.13200000000001 22.3680000000001,0.38200000000001 24.669,0.38200000000001 C30.285,0.38200000000001 34.837,4.85599999999999 34.837,10.373 C34.837,10.373 34.837,10.373 34.837,10.373 Z "/></svg>