<?xml version="1.0" encoding="utf-8"?><!DOCTYPE svg PUBLIC "-//W3C//DTD SVG 1.1//EN" "http://www.w3.org/Graphics/SVG/1.1/DTD/svg11.dtd"><svg version="1.1" baseProfile="full" xmlns="http://www.w3.org/2000/svg" xmlns:xlink="http://www.w3.org/1999/xlink" xmlns:ev="http://www.w3.org/2001/xml-events"   height="31px"   width="31px" ><path fill="rgb( 255, 255, 255 )" d="M0.84399999999999,0.37400000000002 C0.84399999999999,0.37400000000002 30.844,0.37400000000002 30.844,0.37400000000002 C30.844,0.37400000000002 30.844,30.374 30.844,30.374 C30.844,30.374 0.84399999999999,30.374 0.84399999999999,30.374 C0.84399999999999,30.374 0.84399999999999,0.37400000000002 0.84399999999999,0.37400000000002 Z "/><path fill="rgb( 207, 207, 207 )" d="M22.81,17.0410000000001 C22.474,20.5940000000001 19.484,23.374 15.843,23.374 C11.977,23.374 8.84300000000002,20.24 8.84300000000002,16.374 C8.84300000000002,13.204 10.953,10.532 13.843,9.66999999999996 C13.843,9.66999999999996 13.843,8.87400000000002 13.843,8.87400000000002 C13.843,8.04600000000005 14.515,7.37400000000002 15.343,7.37400000000002 C15.42,7.37400000000002 15.487,7.40700000000004 15.56,7.41800000000001 C15.56,7.41800000000001 19.693,10.242 19.693,10.242 C19.784,10.4349999999999 19.843,10.646 19.843,10.874 C19.843,11.102 19.784,11.313 19.693,11.5069999999999 C19.693,11.5069999999999 15.56,14.331 15.56,14.331 C15.487,14.342 15.42,14.374 15.343,14.374 C14.532,14.374 13.881,13.728 13.853,12.924 C12.657,13.615 11.843,14.893 11.843,16.374 C11.843,18.5839999999999 13.634,20.374 15.843,20.374 C18.052,20.374 19.843,18.5839999999999 19.843,16.374 C19.843,16.374 20.175,15.374 21.343,15.374 C22.512,15.374 22.843,16.374 22.843,16.374 C22.843,16.718 22.805,17.0839999999999 22.81,17.0410000000001 Z "/></svg>