<?xml version="1.0" encoding="utf-8"?><!DOCTYPE svg PUBLIC "-//W3C//DTD SVG 1.1//EN" "http://www.w3.org/Graphics/SVG/1.1/DTD/svg11.dtd"><svg version="1.1" baseProfile="full" xmlns="http://www.w3.org/2000/svg" xmlns:xlink="http://www.w3.org/1999/xlink" xmlns:ev="http://www.w3.org/2001/xml-events"   height="16px"   width="30px" ><path fill="rgb( 255, 193, 43 )" d="M29.038,9.24900000000002 C29.038,9.24900000000002 23.538,14.5920000000001 23.538,14.5920000000001 C22.814,15.2950000000001 21.756,15.537 20.79,15.25 C20.485,15.3240000000001 20.172,15.375 19.844,15.375 C19.844,15.375 4.84399999999999,15.375 4.84399999999999,15.375 C2.63500000000001,15.375 0.84399999999999,13.5840000000001 0.84399999999999,11.375 C0.84399999999999,11.375 0.84399999999999,4.375 0.84399999999999,4.375 C0.84399999999999,2.16599999999994 2.63500000000001,0.375 4.84399999999999,0.375 C4.84399999999999,0.375 19.844,0.375 19.844,0.375 C20.154,0.375 20.453,0.41799999999989 20.742,0.4849999999999 C21.721,0.17599999999993 22.802,0.41499999999996 23.538,1.12799999999993 C23.538,1.12799999999993 29.038,6.471 29.038,6.471 C29.575,6.99299999999994 29.844,7.67599999999993 29.844,8.3599999999999 C29.844,9.04299999999989 29.575,8.72700000000009 29.038,9.24900000000002 Z "/><path fill="rgb( 255, 255, 255 )" d="M18.247,5.40599999999995 C18.247,5.40599999999995 18.247,11.375 18.247,11.375 C18.247,11.375 16.825,11.375 16.825,11.375 C16.825,11.375 16.825,5.40599999999995 16.825,5.40599999999995 C16.825,5.40599999999995 15.794,5.40599999999995 15.794,5.40599999999995 C15.794,5.40599999999995 15.794,4.34400000000005 15.794,4.34400000000005 C15.794,4.34400000000005 19.259,4.34400000000005 19.259,4.34400000000005 C19.259,4.34400000000005 19.259,5.40599999999995 19.259,5.40599999999995 C19.259,5.40599999999995 18.247,5.40599999999995 18.247,5.40599999999995 ZM13.099,4.34400000000005 C13.099,4.34400000000005 14.521,4.34400000000005 14.521,4.34400000000005 C14.521,4.34400000000005 14.521,11.375 14.521,11.375 C14.521,11.375 13.099,11.375 13.099,11.375 C13.099,11.375 13.099,4.34400000000005 13.099,4.34400000000005 ZM10.034,8.23800000000006 C10.034,8.23800000000006 9.014,8.23800000000006 9.014,8.23800000000006 C9.014,8.23800000000006 9.014,11.375 9.014,11.375 C9.014,11.375 7.592,11.375 7.592,11.375 C7.592,11.375 7.592,4.34400000000005 7.592,4.34400000000005 C7.592,4.34400000000005 9.014,4.34400000000005 9.014,4.34400000000005 C9.014,4.34400000000005 9.014,7.22700000000009 9.014,7.22700000000009 C9.014,7.22700000000009 10.034,7.22700000000009 10.034,7.22700000000009 C10.034,7.22700000000009 10.034,4.34400000000005 10.034,4.34400000000005 C10.034,4.34400000000005 11.463,4.34400000000005 11.463,4.34400000000005 C11.463,4.34400000000005 11.463,11.375 11.463,11.375 C11.463,11.375 10.034,11.375 10.034,11.375 C10.034,11.375 10.034,8.23800000000006 10.034,8.23800000000006 Z "/></svg>