<?xml version="1.0" encoding="utf-8"?><!DOCTYPE svg PUBLIC "-//W3C//DTD SVG 1.1//EN" "http://www.w3.org/Graphics/SVG/1.1/DTD/svg11.dtd"><svg version="1.1" baseProfile="full" xmlns="http://www.w3.org/2000/svg" xmlns:xlink="http://www.w3.org/1999/xlink" xmlns:ev="http://www.w3.org/2001/xml-events"   height="16px"   width="35px" ><path fill="rgb( 255, 63, 43 )" d="M34.038,9.24900000000002 C34.038,9.24900000000002 28.538,14.5920000000001 28.538,14.5920000000001 C27.814,15.2950000000001 26.756,15.537 25.79,15.25 C25.485,15.3240000000001 25.171,15.375 24.8440000000001,15.375 C24.8440000000001,15.375 4.84400000000005,15.375 4.84400000000005,15.375 C2.63499999999999,15.375 0.84400000000005,13.5840000000001 0.84400000000005,11.375 C0.84400000000005,11.375 0.84400000000005,4.375 0.84400000000005,4.375 C0.84400000000005,2.16599999999994 2.63499999999999,0.375 4.84400000000005,0.375 C4.84400000000005,0.375 24.8440000000001,0.375 24.8440000000001,0.375 C25.154,0.375 25.452,0.41799999999989 25.742,0.4849999999999 C26.721,0.17599999999993 27.802,0.41499999999996 28.538,1.12799999999993 C28.538,1.12799999999993 34.038,6.471 34.038,6.471 C34.575,6.99299999999994 34.8440000000001,7.67599999999993 34.8440000000001,8.3599999999999 C34.8440000000001,9.04299999999989 34.575,8.72700000000009 34.038,9.24900000000002 Z "/><path fill="rgb( 255, 255, 255 )" d="M23.95,10.3979999999999 C23.95,10.3979999999999 23.95,11.375 23.95,11.375 C23.95,11.375 21.016,11.375 21.016,11.375 C21.016,11.375 21.016,4.34400000000005 21.016,4.34400000000005 C21.016,4.34400000000005 23.95,4.34400000000005 23.95,4.34400000000005 C23.95,4.34400000000005 23.95,5.31999999999994 23.95,5.31999999999994 C23.95,5.31999999999994 22.438,5.31999999999994 22.438,5.31999999999994 C22.438,5.31999999999994 22.438,7.23399999999992 22.438,7.23399999999992 C22.438,7.23399999999992 23.508,7.23399999999992 23.508,7.23399999999992 C23.508,7.23399999999992 23.508,8.23399999999992 23.508,8.23399999999992 C23.508,8.23399999999992 22.438,8.23399999999992 22.438,8.23399999999992 C22.438,8.23399999999992 22.438,10.3979999999999 22.438,10.3979999999999 C22.438,10.3979999999999 23.95,10.3979999999999 23.95,10.3979999999999 ZM16.943,4.34400000000005 C16.943,4.34400000000005 18.365,4.34400000000005 18.365,4.34400000000005 C18.365,4.34400000000005 18.365,10.3979999999999 18.365,10.3979999999999 C18.365,10.3979999999999 19.763,10.3979999999999 19.763,10.3979999999999 C19.763,10.3979999999999 19.763,11.375 19.763,11.375 C19.763,11.375 16.943,11.375 16.943,11.375 C16.943,11.375 16.943,4.34400000000005 16.943,4.34400000000005 ZM13.998,9.87100000000009 C13.998,9.87100000000009 13.08,9.87100000000009 13.08,9.87100000000009 C13.08,9.87100000000009 12.807,11.375 12.807,11.375 C12.807,11.375 11.397,11.375 11.397,11.375 C11.397,11.375 12.9160000000001,4.34400000000005 12.9160000000001,4.34400000000005 C12.9160000000001,4.34400000000005 14.174,4.34400000000005 14.174,4.34400000000005 C14.174,4.34400000000005 15.6900000000001,11.375 15.6900000000001,11.375 C15.6900000000001,11.375 14.287,11.375 14.287,11.375 C14.287,11.375 13.998,9.87100000000009 13.998,9.87100000000009 ZM13.549,6.38699999999994 C13.549,6.38699999999994 13.178,8.99600000000009 13.178,8.99600000000009 C13.178,8.99600000000009 13.904,8.99600000000009 13.904,8.99600000000009 C13.904,8.99600000000009 13.549,6.38699999999994 13.549,6.38699999999994 ZM8.30200000000002,6.67399999999998 C8.39400000000001,6.78500000000008 8.48000000000002,6.87599999999998 8.55799999999999,6.94900000000007 C8.63599999999997,7.02199999999993 8.74000000000001,7.1110000000001 8.87,7.2170000000001 C9,7.32199999999989 9.09299999999996,7.40000000000009 9.14700000000005,7.44900000000007 C9.34799999999996,7.62599999999998 9.51700000000005,7.79199999999992 9.65499999999997,7.94699999999989 C9.79300000000001,8.10200000000009 9.923,8.27700000000004 10.046,8.47299999999996 C10.168,8.66799999999989 10.26,8.87899999999991 10.321,9.10599999999999 C10.3819999999999,9.33200000000011 10.413,9.577 10.413,9.83999999999992 C10.413,10.3320000000001 10.237,10.7349999999999 9.88599999999997,11.049 C9.53399999999999,11.3630000000001 9.10699999999997,11.52 8.60400000000004,11.52 C8.279,11.52 7.99000000000001,11.46 7.73699999999997,11.3399999999999 C7.48500000000001,11.22 7.28099999999995,11.057 7.12599999999998,10.8520000000001 C6.971,10.646 6.85199999999998,10.4179999999999 6.76900000000001,10.1679999999999 C6.68499999999995,9.91799999999989 6.63699999999994,9.65000000000009 6.62400000000002,9.36300000000006 C6.62400000000002,9.36300000000006 8.06500000000005,9.08600000000001 8.06500000000005,9.08600000000001 C8.06500000000005,9.22900000000004 8.06799999999998,9.35500000000002 8.07299999999998,9.46499999999992 C8.07799999999997,9.57400000000007 8.09199999999998,9.69299999999998 8.11400000000003,9.82199999999989 C8.13599999999997,9.95100000000002 8.16600000000005,10.057 8.20399999999995,10.1389999999999 C8.24199999999996,10.221 8.29499999999996,10.29 8.36400000000003,10.346 C8.43299999999999,10.402 8.51499999999999,10.4300000000001 8.60799999999995,10.4300000000001 C8.88999999999999,10.4300000000001 9.02999999999997,10.25 9.02999999999997,9.89100000000008 C9.02999999999997,9.39799999999991 8.75300000000004,8.90900000000011 8.19799999999998,8.42200000000003 C8.19799999999998,8.42200000000003 7.75699999999995,8.04700000000003 7.75699999999995,8.04700000000003 C7.61599999999999,7.93000000000006 7.50400000000002,7.83200000000011 7.42100000000005,7.75399999999991 C7.33799999999997,7.67599999999993 7.23900000000003,7.56999999999994 7.12599999999998,7.4380000000001 C7.01300000000003,7.30500000000006 6.92399999999998,7.17599999999993 6.86000000000001,7.05300000000011 C6.79600000000005,6.92900000000009 6.74199999999996,6.77999999999997 6.69600000000003,6.60599999999999 C6.65099999999995,6.43100000000004 6.62800000000004,6.24600000000009 6.62800000000004,6.05099999999993 C6.62800000000004,5.48000000000002 6.80899999999997,5.029 7.17100000000005,4.69699999999989 C7.53300000000002,4.36500000000001 8.01300000000003,4.19900000000007 8.61199999999997,4.19900000000007 C9.11000000000001,4.19900000000007 9.53300000000002,4.37599999999998 9.88199999999995,4.73099999999999 C10.231,5.08500000000004 10.405,5.51199999999994 10.405,6.01199999999994 C10.405,6.01199999999994 10.401,6.0630000000001 10.401,6.0630000000001 C10.401,6.096 10.401,6.13499999999999 10.401,6.18000000000006 C10.401,6.18000000000006 8.93299999999999,6.38300000000004 8.93299999999999,6.38300000000004 C8.93299999999999,6.35400000000004 8.93499999999995,6.30899999999997 8.93799999999999,6.24800000000005 C8.94200000000001,6.1869999999999 8.94399999999996,6.13699999999994 8.94399999999996,6.09799999999996 C8.94399999999996,6.00399999999991 8.93799999999999,5.91399999999999 8.92499999999995,5.82799999999997 C8.91200000000003,5.74199999999996 8.88999999999999,5.65599999999995 8.86000000000001,5.56999999999994 C8.83000000000004,5.48399999999992 8.78399999999999,5.41599999999994 8.72199999999998,5.36500000000001 C8.65899999999999,5.31400000000008 8.58399999999995,5.28899999999999 8.495,5.28899999999999 C8.33900000000006,5.28899999999999 8.22199999999998,5.34999999999991 8.14400000000001,5.47299999999996 C8.06500000000005,5.59500000000003 8.02599999999995,5.74000000000001 8.02599999999995,5.90599999999995 C8.02599999999995,6.05199999999991 8.04899999999998,6.18900000000008 8.09500000000003,6.31600000000003 C8.13999999999999,6.44399999999996 8.20899999999995,6.5630000000001 8.30200000000002,6.67399999999998 Z "/></svg>