<?xml version="1.0" encoding="utf-8"?><!DOCTYPE svg PUBLIC "-//W3C//DTD SVG 1.1//EN" "http://www.w3.org/Graphics/SVG/1.1/DTD/svg11.dtd"><svg version="1.1" baseProfile="full" xmlns="http://www.w3.org/2000/svg" xmlns:xlink="http://www.w3.org/1999/xlink" xmlns:ev="http://www.w3.org/2001/xml-events"   height="5px"   width="7px" ><path fill="rgb( 31, 75, 165 )" d="M1.01300000000001,1.49200000000019 C1.01300000000001,1.49200000000019 1.014,1.49099999999999 1.014,1.49099999999999 C0.90900000000001,1.37199999999984 0.84399999999999,1.21500000000015 0.84399999999999,1.04100000000017 C0.84399999999999,0.67299999999977 1.13200000000001,0.375 1.48699999999999,0.375 C1.67400000000001,0.375 1.84099999999999,0.45899999999983 1.959,0.5920000000001 C1.959,0.5920000000001 1.95999999999999,0.59099999999989 1.95999999999999,0.59099999999989 C1.95999999999999,0.59099999999989 3.84399999999999,2.721 3.84399999999999,2.721 C3.84399999999999,2.721 5.727,0.59099999999989 5.727,0.59099999999989 C5.727,0.59099999999989 5.729,0.5920000000001 5.729,0.5920000000001 C5.846,0.45899999999983 6.01300000000001,0.375 6.20099999999999,0.375 C6.55600000000001,0.375 6.84399999999999,0.67299999999977 6.84399999999999,1.04100000000017 C6.84399999999999,1.21500000000015 6.77799999999999,1.37199999999984 6.673,1.49099999999999 C6.673,1.49099999999999 6.67500000000001,1.49200000000019 6.67500000000001,1.49200000000019 C6.67500000000001,1.49200000000019 4.318,4.15900000000011 4.318,4.15900000000011 C4.196,4.29599999999982 4.024,4.375 3.84399999999999,4.375 C3.663,4.375 3.492,4.29599999999982 3.37,4.15900000000011 C3.37,4.15900000000011 1.01300000000001,1.49200000000019 1.01300000000001,1.49200000000019 Z "/></svg>