<?xml version="1.0" encoding="utf-8"?><!DOCTYPE svg PUBLIC "-//W3C//DTD SVG 1.1//EN" "http://www.w3.org/Graphics/SVG/1.1/DTD/svg11.dtd"><svg version="1.1" baseProfile="full" xmlns="http://www.w3.org/2000/svg" xmlns:xlink="http://www.w3.org/1999/xlink" xmlns:ev="http://www.w3.org/2001/xml-events"   height="9px"   width="12px" ><path fill="rgb( 255, 255, 255 )" d="M11.841,4.35899999999999 C11.841,4.364 11.844,4.369 11.844,4.375 C11.844,4.711 11.667,4.994 11.412,5.176 C11.412,5.176 8.53100000000001,8.069 8.53100000000001,8.069 C8.13999999999999,8.461 7.50700000000001,8.461 7.11700000000002,8.069 C6.726,7.678 6.726,7.044 7.11700000000002,6.65300000000001 C7.11700000000002,6.65300000000001 8.38799999999998,5.375 8.38799999999998,5.375 C8.38799999999998,5.375 1.84399999999999,5.375 1.84399999999999,5.375 C1.291,5.375 0.84399999999999,4.92700000000001 0.84399999999999,4.375 C0.84399999999999,3.822 1.291,3.375 1.84399999999999,3.375 C1.84399999999999,3.375 8.46300000000002,3.375 8.46300000000002,3.375 C8.46300000000002,3.375 7.125,2.065 7.125,2.065 C6.73399999999998,1.67400000000001 6.73399999999998,1.04000000000001 7.125,0.649 C7.51600000000002,0.25700000000001 8.14800000000002,0.25700000000001 8.53899999999999,0.649 C8.53899999999999,0.649 11.555,3.61499999999999 11.555,3.61499999999999 C11.742,3.803 11.847,4.05800000000001 11.847,4.324 C11.847,4.336 11.841,4.34699999999999 11.841,4.35899999999999 Z "/></svg>