<?xml version="1.0" encoding="utf-8"?><!DOCTYPE svg PUBLIC "-//W3C//DTD SVG 1.1//EN" "http://www.w3.org/Graphics/SVG/1.1/DTD/svg11.dtd"><svg version="1.1" baseProfile="full" xmlns="http://www.w3.org/2000/svg" xmlns:xlink="http://www.w3.org/1999/xlink" xmlns:ev="http://www.w3.org/2001/xml-events"   height="15px"   width="17px" ><path fill="rgb( 205, 205, 205 )" d="M16.844,4.37400000000002 C16.844,4.60500000000002 16.752,4.80799999999999 16.62,4.97800000000007 C16.62,4.97800000000007 16.633,4.98800000000006 16.633,4.98800000000006 C16.633,4.98800000000006 9.633,13.9880000000001 9.633,13.9880000000001 C9.633,13.9880000000001 9.62,13.9780000000001 9.62,13.9780000000001 C9.437,14.213 9.165,14.374 8.844,14.374 C8.523,14.374 8.25,14.213 8.067,13.9780000000001 C8.067,13.9780000000001 8.054,13.9880000000001 8.054,13.9880000000001 C8.054,13.9880000000001 1.054,4.98800000000006 1.054,4.98800000000006 C1.054,4.98800000000006 1.067,4.97800000000007 1.067,4.97800000000007 C0.935,4.80799999999999 0.844,4.60500000000002 0.844,4.37400000000002 C0.844,4.09799999999996 0.956,3.84799999999996 1.137,3.66699999999992 C1.137,3.66699999999992 1.137,3.66699999999992 1.137,3.66699999999992 C1.137,3.66699999999992 4.137,0.66699999999992 4.137,0.66699999999992 C4.137,0.66699999999992 4.137,0.66699999999992 4.137,0.66699999999992 C4.317,0.4860000000001 4.567,0.37400000000002 4.844,0.37400000000002 C4.844,0.37400000000002 12.844,0.37400000000002 12.844,0.37400000000002 C13.12,0.37400000000002 13.37,0.4860000000001 13.551,0.66699999999992 C13.551,0.66699999999992 13.551,0.66699999999992 13.551,0.66699999999992 C13.551,0.66699999999992 16.551,3.66699999999992 16.551,3.66699999999992 C16.551,3.66699999999992 16.551,3.66699999999992 16.551,3.66699999999992 C16.732,3.84799999999996 16.844,4.09799999999996 16.844,4.37400000000002 ZM12.429,2.37400000000002 C12.429,2.37400000000002 5.258,2.37400000000002 5.258,2.37400000000002 C5.258,2.37400000000002 3.175,4.45700000000011 3.175,4.45700000000011 C3.175,4.45700000000011 8.844,11.7449999999999 8.844,11.7449999999999 C8.844,11.7449999999999 14.512,4.45700000000011 14.512,4.45700000000011 C14.512,4.45700000000011 12.429,2.37400000000002 12.429,2.37400000000002 Z "/></svg>