<?xml version="1.0" encoding="utf-8"?><!DOCTYPE svg PUBLIC "-//W3C//DTD SVG 1.1//EN" "http://www.w3.org/Graphics/SVG/1.1/DTD/svg11.dtd"><svg version="1.1" baseProfile="full" xmlns="http://www.w3.org/2000/svg" xmlns:xlink="http://www.w3.org/1999/xlink" xmlns:ev="http://www.w3.org/2001/xml-events"   height="14px"   width="14px" ><path fill="rgb( 34, 34, 34 )" d="M2.34399999999999,0.375 C2.34399999999999,0.375 12.344,0.375 12.344,0.375 C13.172,0.375 13.844,1.04599999999982 13.844,1.875 C13.844,2.70299999999997 13.172,3.375 12.344,3.375 C12.344,3.375 2.34399999999999,3.375 2.34399999999999,3.375 C1.51600000000001,3.375 0.84399999999999,2.70299999999997 0.84399999999999,1.875 C0.84399999999999,1.04599999999982 1.51600000000001,0.375 2.34399999999999,0.375 ZM2.34399999999999,5.375 C2.34399999999999,5.375 12.344,5.375 12.344,5.375 C13.172,5.375 13.844,6.04599999999982 13.844,6.875 C13.844,7.70299999999997 13.172,8.375 12.344,8.375 C12.344,8.375 2.34399999999999,8.375 2.34399999999999,8.375 C1.51600000000001,8.375 0.84399999999999,7.70299999999997 0.84399999999999,6.875 C0.84399999999999,6.04599999999982 1.51600000000001,5.375 2.34399999999999,5.375 ZM2.34399999999999,10.375 C2.34399999999999,10.375 12.344,10.375 12.344,10.375 C13.172,10.375 13.844,11.0459999999998 13.844,11.875 C13.844,12.703 13.172,13.375 12.344,13.375 C12.344,13.375 2.34399999999999,13.375 2.34399999999999,13.375 C1.51600000000001,13.375 0.84399999999999,12.703 0.84399999999999,11.875 C0.84399999999999,11.0459999999998 1.51600000000001,10.375 2.34399999999999,10.375 Z "/></svg>