<?xml version="1.0" encoding="utf-8"?><!DOCTYPE svg PUBLIC "-//W3C//DTD SVG 1.1//EN" "http://www.w3.org/Graphics/SVG/1.1/DTD/svg11.dtd"><svg version="1.1" baseProfile="full" xmlns="http://www.w3.org/2000/svg" xmlns:xlink="http://www.w3.org/1999/xlink" xmlns:ev="http://www.w3.org/2001/xml-events"   height="14px"   width="43px" ><path fill="rgb( 101, 101, 101 )" d="M39.3049999999999,13.73 C39.3049999999999,13.73 38.9930000000001,12.221 38.893,11.764 C38.399,11.764 34.9450000000001,11.757 34.557,11.757 C34.425,12.112 33.845,13.73 33.845,13.73 C33.845,13.73 30.289,13.73 30.289,13.73 C30.289,13.73 35.317,1.70399999999999 35.317,1.70399999999999 C35.672,0.849 36.28,0.617 37.092,0.617 C37.092,0.617 39.707,0.617 39.707,0.617 C39.707,0.617 42.447,13.73 42.447,13.73 C42.447,13.73 39.3049999999999,13.73 39.3049999999999,13.73 ZM37.557,5.285 C37.557,5.285 37.329,4.154 37.329,4.154 C37.158,4.645 36.86,5.44 36.88,5.405 C36.88,5.405 35.812,8.318 35.5309999999999,9.07299999999999 C36.192,9.07299999999999 37.814,9.07299999999999 38.341,9.07299999999999 C38.207,8.417 37.557,5.285 37.557,5.285 ZM30.261,3.62 C29.636,3.354 28.8339999999999,3.098 27.727,3.116 C26.401,3.116 25.789,3.7 25.788,4.245 C25.78,4.861 26.506,5.264 27.689,5.873 C29.6420000000001,6.809 30.544,7.94199999999999 30.533,9.438 C30.505,12.161 28.194,13.92 24.6369999999999,13.92 C23.117,13.903 21.655,13.586 20.865,13.221 C20.865,13.221 21.338,10.284 21.338,10.284 C21.338,10.284 21.774,10.492 21.774,10.492 C22.8869999999999,10.982 23.6079999999999,11.181 24.963,11.181 C25.936,11.181 26.98,10.778 26.989,9.899 C26.994,9.325 26.551,8.914 25.232,8.271 C23.949,7.64400000000001 22.246,6.592 22.266,4.706 C22.287,2.15600000000001 24.643,0.375 27.99,0.375 C29.301,0.375 30.354,0.66200000000001 31.023,0.926 C31.023,0.926 30.5650000000001,3.77 30.5650000000001,3.77 C30.5650000000001,3.77 30.261,3.62 30.261,3.62 ZM15.3579999999999,13.726 C15.3579999999999,13.726 17.476,0.604 17.476,0.604 C17.476,0.604 20.861,0.604 20.861,0.604 C20.861,0.604 18.744,13.726 18.744,13.726 C18.744,13.726 15.3579999999999,13.726 15.3579999999999,13.726 ZM7.19200000000001,13.714 C7.19200000000001,13.714 4.43499999999995,3.277 4.43499999999995,3.277 C6.39599999999996,4.083 8.13999999999999,5.83499999999999 8.85000000000002,7.74299999999999 C8.85000000000002,7.74299999999999 9.20500000000004,9.56100000000001 9.20500000000004,9.56100000000001 C9.20500000000004,9.56100000000001 12.518,0.61499999999999 12.518,0.61499999999999 C12.518,0.61499999999999 16.106,0.61499999999999 16.106,0.61499999999999 C16.106,0.61499999999999 10.775,13.712 10.775,13.712 C10.775,13.712 7.19200000000001,13.714 7.19200000000001,13.714 ZM0.625,0.877 C0.625,0.877 0.66999999999996,0.60599999999999 0.66999999999996,0.60599999999999 C0.66999999999996,0.60599999999999 6.12900000000002,0.60599999999999 6.12900000000002,0.60599999999999 C6.86500000000001,0.63500000000001 7.45899999999995,0.881 7.66399999999999,1.71299999999999 C7.66399999999999,1.71299999999999 8.85000000000002,7.742 8.85000000000002,7.742 C7.45600000000002,3.871 4.38099999999997,1.824 0.625,0.877 Z "/></svg>