<?xml version="1.0" encoding="utf-8"?><!DOCTYPE svg PUBLIC "-//W3C//DTD SVG 1.1//EN" "http://www.w3.org/Graphics/SVG/1.1/DTD/svg11.dtd"><svg version="1.1" baseProfile="full" xmlns="http://www.w3.org/2000/svg" xmlns:xlink="http://www.w3.org/1999/xlink" xmlns:ev="http://www.w3.org/2001/xml-events"   height="18px"   width="17px" ><path fill="rgb( 34, 34, 34 )" d="M16.561,17.0920000000001 C16.171,17.4830000000002 15.538,17.4830000000002 15.147,17.0920000000001 C15.147,17.0920000000001 11.997,13.942 11.997,13.942 C9.25599999999997,15.9920000000002 5.36800000000005,15.7979999999998 2.87599999999998,13.3069999999998 C0.14200000000005,10.5729999999999 0.14200000000005,6.14100000000008 2.87599999999998,3.40700000000015 C5.61000000000001,0.67299999999977 10.042,0.67299999999977 12.776,3.40700000000015 C15.2670000000001,5.89899999999989 15.462,9.78699999999981 13.412,12.5279999999998 C13.412,12.5279999999998 16.561,15.6779999999999 16.561,15.6779999999999 C16.952,16.0680000000002 16.952,16.7020000000002 16.561,17.0920000000001 ZM11.361,4.82099999999991 C9.40899999999999,2.86900000000014 6.24300000000005,2.86900000000014 4.28999999999996,4.82099999999991 C2.33799999999997,6.77399999999989 2.33799999999997,9.94000000000005 4.28999999999996,11.8919999999998 C6.24300000000005,13.8449999999998 9.40899999999999,13.8449999999998 11.361,11.8919999999998 C13.314,9.94000000000005 13.314,6.77399999999989 11.361,4.82099999999991 Z "/></svg>