<?xml version="1.0" encoding="utf-8"?><!DOCTYPE svg PUBLIC "-//W3C//DTD SVG 1.1//EN" "http://www.w3.org/Graphics/SVG/1.1/DTD/svg11.dtd"><svg version="1.1" baseProfile="full" xmlns="http://www.w3.org/2000/svg" xmlns:xlink="http://www.w3.org/1999/xlink" xmlns:ev="http://www.w3.org/2001/xml-events"   height="33px"   width="33px" ><path opacity="0.302" fill="rgb( 77, 77, 77 )" d="M16.844,32.375 C25.68,32.375 32.844,25.211 32.844,16.375 C32.844,7.53899999999999 25.68,0.375 16.844,0.375 C8.008,0.375 0.84399999999999,7.53899999999999 0.84399999999999,16.375 C0.84399999999999,25.211 8.008,32.375 16.844,32.375 ZM16.844,3.375 C24.012,3.375 29.844,9.20700000000011 29.844,16.375 C29.844,23.5429999999999 24.012,29.375 16.844,29.375 C9.676,29.375 3.84399999999999,23.5429999999999 3.84399999999999,16.375 C3.84399999999999,9.20700000000011 9.676,3.375 16.844,3.375 ZM18.33,22.98 C18.33,22.98 18.333,22.9760000000001 18.333,22.9760000000001 C18.601,23.221 18.953,23.375 19.344,23.375 C20.172,23.375 20.844,22.703 20.844,21.875 C20.844,21.4369999999999 20.653,21.047 20.354,20.7729999999999 C20.354,20.7729999999999 20.357,20.769 20.357,20.769 C20.357,20.769 15.563,16.375 15.563,16.375 C15.563,16.375 20.357,11.98 20.357,11.98 C20.357,11.98 20.354,11.9760000000001 20.354,11.9760000000001 C20.653,11.703 20.844,11.3119999999999 20.844,10.875 C20.844,10.046 20.172,9.375 19.344,9.375 C18.953,9.375 18.601,9.52800000000002 18.333,9.77299999999991 C18.333,9.77299999999991 18.33,9.76900000000001 18.33,9.76900000000001 C18.33,9.76900000000001 12.33,15.269 12.33,15.269 C12.021,15.5530000000001 11.844,15.954 11.844,16.375 C11.844,16.796 12.021,17.1959999999999 12.33,17.48 C12.33,17.48 18.33,22.98 18.33,22.98 Z "/></svg>