<?xml version="1.0" encoding="utf-8"?><!DOCTYPE svg PUBLIC "-//W3C//DTD SVG 1.1//EN" "http://www.w3.org/Graphics/SVG/1.1/DTD/svg11.dtd"><svg version="1.1" baseProfile="full" xmlns="http://www.w3.org/2000/svg" xmlns:xlink="http://www.w3.org/1999/xlink" xmlns:ev="http://www.w3.org/2001/xml-events"   height="17px"   width="17px" ><path fill="rgb( 207, 207, 207 )" d="M14.844,16.374 C14.844,16.374 2.84399999999999,16.374 2.84399999999999,16.374 C1.73899999999998,16.374 0.84399999999999,15.479 0.84399999999999,14.374 C0.84399999999999,14.374 0.84399999999999,5.37400000000002 0.84399999999999,5.37400000000002 C0.84399999999999,4.26999999999998 1.73899999999998,3.37400000000002 2.84399999999999,3.37400000000002 C2.84399999999999,3.37400000000002 4.84399999999999,3.37400000000002 4.84399999999999,3.37400000000002 C4.84399999999999,3.37400000000002 4.84399999999999,2.37400000000002 4.84399999999999,2.37400000000002 C4.84399999999999,1.26999999999998 5.73899999999998,0.37400000000002 6.84399999999999,0.37400000000002 C6.84399999999999,0.37400000000002 10.844,0.37400000000002 10.844,0.37400000000002 C11.948,0.37400000000002 12.844,1.26999999999998 12.844,2.37400000000002 C12.844,2.37400000000002 12.844,3.37400000000002 12.844,3.37400000000002 C12.844,3.37400000000002 14.844,3.37400000000002 14.844,3.37400000000002 C15.948,3.37400000000002 16.844,4.26999999999998 16.844,5.37400000000002 C16.844,5.37400000000002 16.844,14.374 16.844,14.374 C16.844,15.479 15.948,16.374 14.844,16.374 ZM10.343,2.37400000000002 C10.343,2.37400000000002 7.34300000000002,2.37400000000002 7.34300000000002,2.37400000000002 C7.06700000000001,2.37400000000002 6.84399999999999,2.59799999999996 6.84399999999999,2.87400000000002 C6.84399999999999,3.14999999999998 7.06700000000001,3.37400000000002 7.34300000000002,3.37400000000002 C7.34300000000002,3.37400000000002 10.343,3.37400000000002 10.343,3.37400000000002 C10.62,3.37400000000002 10.844,3.14999999999998 10.844,2.87400000000002 C10.844,2.59799999999996 10.62,2.37400000000002 10.343,2.37400000000002 ZM13.843,5.37400000000002 C13.843,5.37400000000002 3.84399999999999,5.37400000000002 3.84399999999999,5.37400000000002 C3.291,5.37400000000002 2.84399999999999,5.822 2.84399999999999,6.37400000000002 C2.84399999999999,6.92700000000002 3.291,7.37400000000002 3.84399999999999,7.37400000000002 C3.84399999999999,7.37400000000002 13.843,7.37400000000002 13.843,7.37400000000002 C14.396,7.37400000000002 14.844,6.92700000000002 14.844,6.37400000000002 C14.844,5.822 14.396,5.37400000000002 13.843,5.37400000000002 ZM14.844,10.374 C14.844,9.822 14.396,9.37400000000002 13.843,9.37400000000002 C13.843,9.37400000000002 12.844,9.37400000000002 12.844,9.37400000000002 C12.844,9.37400000000002 12.844,10.374 12.844,10.374 C12.844,10.926 12.396,11.374 11.844,11.374 C11.291,11.374 10.844,10.926 10.844,10.374 C10.844,10.374 10.844,9.37400000000002 10.844,9.37400000000002 C10.844,9.37400000000002 6.84399999999999,9.37400000000002 6.84399999999999,9.37400000000002 C6.84399999999999,9.37400000000002 6.84399999999999,10.374 6.84399999999999,10.374 C6.84399999999999,10.926 6.39600000000002,11.374 5.84399999999999,11.374 C5.291,11.374 4.84399999999999,10.926 4.84399999999999,10.374 C4.84399999999999,10.374 4.84399999999999,9.37400000000002 4.84399999999999,9.37400000000002 C4.84399999999999,9.37400000000002 3.84399999999999,9.37400000000002 3.84399999999999,9.37400000000002 C3.291,9.37400000000002 2.84399999999999,9.822 2.84399999999999,10.374 C2.84399999999999,10.374 2.84399999999999,13.374 2.84399999999999,13.374 C2.84399999999999,13.927 3.291,14.374 3.84399999999999,14.374 C3.84399999999999,14.374 13.843,14.374 13.843,14.374 C14.396,14.374 14.844,13.927 14.844,13.374 C14.844,13.374 14.844,10.374 14.844,10.374 Z "/></svg>