<?xml version="1.0" encoding="utf-8"?><!DOCTYPE svg PUBLIC "-//W3C//DTD SVG 1.1//EN" "http://www.w3.org/Graphics/SVG/1.1/DTD/svg11.dtd"><svg version="1.1" baseProfile="full" xmlns="http://www.w3.org/2000/svg" xmlns:xlink="http://www.w3.org/1999/xlink" xmlns:ev="http://www.w3.org/2001/xml-events"   height="15px"   width="17px" ><defs><filter id="Filter_0">  <feFlood flood-color="rgb( 255, 255, 255 )" flood-opacity="1" result="floodOut" />  <feComposite operator="atop" in="floodOut" in2="SourceGraphic" result="compOut" />  <feBlend mode="normal" in="compOut" in2="SourceGraphic" /></filter></defs><g filter="url(#Filter_0)"><path opacity="0.302" fill="rgb( 213, 213, 213 )" d="M14.844,14.375 C14.844,14.375 2.84399999999999,14.375 2.84399999999999,14.375 C1.739,14.375 0.84399999999999,13.48 0.84399999999999,12.375 C0.84399999999999,12.375 0.84399999999999,2.375 0.84399999999999,2.375 C0.84399999999999,1.27 1.739,0.375 2.84399999999999,0.375 C2.84399999999999,0.375 14.844,0.375 14.844,0.375 C15.948,0.375 16.844,1.27 16.844,2.375 C16.844,2.375 16.844,12.375 16.844,12.375 C16.844,13.48 15.948,14.375 14.844,14.375 ZM3.84399999999999,12.375 C3.84399999999999,12.375 13.844,12.375 13.844,12.375 C14.396,12.375 14.844,11.927 14.844,11.375 C14.844,11.375 14.844,3.75700000000001 14.844,3.75700000000001 C14.844,3.75700000000001 9.51599999999999,9.086 9.51599999999999,9.086 C9.328,9.273 9.07400000000001,9.379 8.809,9.379 C8.54300000000001,9.379 8.28899999999999,9.273 8.102,9.086 C8.102,9.086 2.84399999999999,3.77200000000001 2.84399999999999,3.77200000000001 C2.84399999999999,3.77200000000001 2.84399999999999,11.375 2.84399999999999,11.375 C2.84399999999999,11.927 3.291,12.375 3.84399999999999,12.375 ZM13.398,2.375 C13.398,2.375 4.273,2.375 4.273,2.375 C4.273,2.375 8.809,6.965 8.809,6.965 C8.809,6.965 13.398,2.375 13.398,2.375 Z "/></g></svg>