<?xml version="1.0" encoding="utf-8"?><!DOCTYPE svg PUBLIC "-//W3C//DTD SVG 1.1//EN" "http://www.w3.org/Graphics/SVG/1.1/DTD/svg11.dtd"><svg version="1.1" baseProfile="full" xmlns="http://www.w3.org/2000/svg" xmlns:xlink="http://www.w3.org/1999/xlink" xmlns:ev="http://www.w3.org/2001/xml-events"   height="16px"   width="15px" ><path fill="rgb( 34, 34, 34 )" d="M13.843,15.3739999999998 C13.2910000000001,15.3739999999998 12.843,14.9259999999999 12.843,14.3739999999998 C12.843,12.9360000000001 12.228,11.6500000000001 11.2569999999999,10.7370000000001 C10.362,11.7449999999999 9.16700000000003,12.3739999999998 7.84299999999996,12.3739999999998 C6.51999999999998,12.3739999999998 5.32399999999996,11.7449999999999 4.42999999999995,10.7370000000001 C3.45799999999997,11.6500000000001 2.84299999999996,12.9360000000001 2.84299999999996,14.3739999999998 C2.84299999999996,14.3739999999998 2.84299999999996,14.3739999999998 2.84299999999996,14.3739999999998 C2.84299999999996,14.9259999999999 2.39499999999998,15.3739999999998 1.84299999999996,15.3739999999998 C1.29100000000005,15.3739999999998 0.84299999999996,14.9259999999999 0.84299999999996,14.3739999999998 C0.84299999999996,12.2150000000001 1.84199999999998,10.308 3.37800000000004,9.02399999999989 C3.04700000000003,8.22200000000021 2.84299999999996,7.32999999999993 2.84299999999996,6.3739999999998 C2.84299999999996,3.06100000000015 5.08199999999999,0.3739999999998 7.84299999999996,0.3739999999998 C10.605,0.3739999999998 12.843,3.06100000000015 12.843,6.3739999999998 C12.843,7.32999999999993 12.64,8.22200000000021 12.308,9.02399999999989 C13.845,10.308 14.843,12.2150000000001 14.843,14.3739999999998 C14.843,14.3739999999998 14.843,14.3739999999998 14.843,14.3739999999998 C14.843,14.9259999999999 14.396,15.3739999999998 13.843,15.3739999999998 ZM7.84299999999996,2.3739999999998 C6.18600000000004,2.3739999999998 4.84299999999996,4.16499999999996 4.84299999999996,6.3739999999998 C4.84299999999996,8.58300000000008 6.18600000000004,10.3739999999998 7.84299999999996,10.3739999999998 C9.5,10.3739999999998 10.843,8.58300000000008 10.843,6.3739999999998 C10.843,4.16499999999996 9.5,2.3739999999998 7.84299999999996,2.3739999999998 Z "/></svg>