<?xml version="1.0" encoding="utf-8"?><!DOCTYPE svg PUBLIC "-//W3C//DTD SVG 1.1//EN" "http://www.w3.org/Graphics/SVG/1.1/DTD/svg11.dtd"><svg version="1.1" baseProfile="full" xmlns="http://www.w3.org/2000/svg" xmlns:xlink="http://www.w3.org/1999/xlink" xmlns:ev="http://www.w3.org/2001/xml-events"   height="20px"   width="97px" ><path fill="rgb( 31, 75, 165 )" d="M95.735,13.71 C95.535,13.9189999999999 95.267,14.0219999999999 94.931,14.0219999999999 C94.931,14.0219999999999 86.795,14.0219999999999 86.795,14.0219999999999 C86.923,15.1109999999999 87.331,15.9749999999999 88.019,16.6149999999998 C88.707,17.2550000000001 89.667,17.5740000000001 90.899,17.5740000000001 C92.131,17.5740000000001 93.163,17.3670000000002 93.995,16.951 C94.283,16.8069999999998 94.531,16.7350000000001 94.739,16.7350000000001 C94.947,16.7350000000001 95.147,16.8229999999999 95.339,16.9989999999998 C95.531,17.1750000000002 95.627,17.375 95.627,17.5990000000002 C95.627,18.0149999999999 95.455,18.3150000000001 95.111,18.498 C94.767,18.683 94.459,18.8389999999999 94.187,18.9670000000001 C93.915,19.0949999999998 93.619,19.2060000000001 93.299,19.3020000000001 C92.579,19.5100000000002 91.747,19.6149999999998 90.803,19.6149999999998 C88.835,19.6149999999998 87.307,19.0619999999999 86.219,17.9580000000001 C85.131,16.855 84.587,15.2869999999998 84.587,13.2550000000001 C84.587,11.4949999999999 85.043,10.0309999999999 85.955,8.86299999999983 C86.979,7.55099999999993 88.435,6.89399999999978 90.323,6.89399999999978 C92.115,6.89399999999978 93.531,7.50300000000016 94.571,8.71900000000005 C95.547,9.85500000000002 96.035,11.2629999999999 96.035,12.942 C96.035,13.2469999999998 95.935,13.5030000000002 95.735,13.71 ZM92.627,9.5590000000002 C91.987,9.01499999999987 91.219,8.74200000000019 90.323,8.74200000000019 C88.899,8.74200000000019 87.859,9.375 87.203,10.6390000000001 C86.963,11.087 86.827,11.623 86.795,12.2469999999998 C86.795,12.2469999999998 93.875,12.2469999999998 93.875,12.2469999999998 C93.811,11.1109999999999 93.395,10.2150000000001 92.627,9.5590000000002 ZM74.843,9.00599999999986 C74.843,9.00599999999986 74.723,9.00599999999986 74.723,9.00599999999986 C73.923,9.00599999999986 73.207,9.20299999999997 72.575,9.5949999999998 C71.943,9.98700000000008 71.419,10.4940000000001 71.003,11.1190000000001 C71.003,11.1190000000001 71.003,18.4140000000002 71.003,18.4140000000002 C71.003,18.7190000000001 70.895,18.9749999999999 70.679,19.1819999999998 C70.463,19.3899999999999 70.203,19.4949999999999 69.899,19.4949999999999 C69.595,19.4949999999999 69.339,19.3899999999999 69.131,19.1819999999998 C68.923,18.9749999999999 68.819,18.7190000000001 68.819,18.4140000000002 C68.819,18.4140000000002 68.819,8.11900000000014 68.819,8.11900000000014 C68.819,7.81500000000005 68.923,7.55499999999984 69.131,7.33800000000019 C69.339,7.12199999999984 69.595,7.01400000000012 69.899,7.01400000000012 C70.203,7.01400000000012 70.463,7.12199999999984 70.679,7.33800000000019 C70.895,7.55499999999984 71.003,7.81500000000005 71.003,8.11900000000014 C71.003,8.11900000000014 71.003,9.15099999999984 71.003,9.15099999999984 C72.123,7.64699999999993 73.379,6.89399999999978 74.771,6.89399999999978 C74.771,6.89399999999978 74.891,6.89399999999978 74.891,6.89399999999978 C75.195,6.89399999999978 75.447,6.9989999999998 75.647,7.20699999999988 C75.847,7.41499999999996 75.947,7.67399999999998 75.947,7.98700000000008 C75.947,8.29899999999998 75.843,8.54700000000003 75.635,8.73100000000022 C75.427,8.91499999999996 75.163,9.00599999999986 74.843,9.00599999999986 ZM56.819,19.4949999999999 C56.515,19.4949999999999 56.259,19.3899999999999 56.051,19.1819999999998 C55.843,18.9749999999999 55.739,18.7190000000001 55.739,18.4140000000002 C55.739,18.4140000000002 55.739,17.7910000000002 55.739,17.7910000000002 C55.307,18.239 54.727,18.654 53.999,19.038 C53.271,19.422 52.347,19.6149999999998 51.227,19.6149999999998 C50.123,19.6149999999998 49.203,19.2950000000001 48.467,18.654 C47.699,17.982 47.315,17.1030000000001 47.315,16.0149999999999 C47.315,14.8310000000001 47.763,13.9029999999998 48.659,13.2310000000002 C49.635,12.4949999999999 51.027,12.127 52.835,12.127 C52.835,12.127 55.739,12.127 55.739,12.127 C55.739,12.127 55.739,11.9349999999999 55.739,11.9349999999999 C55.739,10.8629999999998 55.475,10.0990000000002 54.947,9.64300000000003 C54.419,9.18600000000015 53.611,8.95899999999983 52.523,8.95899999999983 C51.595,8.95899999999983 50.531,9.15099999999984 49.331,9.53499999999985 C49.203,9.56700000000001 49.059,9.58300000000008 48.899,9.58300000000008 C48.739,9.58300000000008 48.571,9.4989999999998 48.395,9.33100000000013 C48.219,9.16300000000001 48.131,8.90299999999979 48.131,8.55099999999993 C48.131,8.19900000000007 48.339,7.93499999999995 48.755,7.75799999999981 C50.099,7.18199999999979 51.491,6.89399999999978 52.931,6.89399999999978 C54.563,6.89399999999978 55.827,7.39100000000008 56.723,8.38299999999981 C57.523,9.24699999999984 57.923,10.3270000000002 57.923,11.623 C57.923,11.623 57.923,18.4140000000002 57.923,18.4140000000002 C57.923,18.7190000000001 57.815,18.9749999999999 57.599,19.1819999999998 C57.383,19.3899999999999 57.123,19.4949999999999 56.819,19.4949999999999 ZM55.739,13.8789999999999 C55.739,13.8789999999999 53.123,13.8789999999999 53.123,13.8789999999999 C51.987,13.8789999999999 51.099,14.0219999999999 50.459,14.3110000000001 C49.819,14.5990000000002 49.499,15.087 49.499,15.7750000000001 C49.499,17.0549999999998 50.347,17.6950000000002 52.043,17.6950000000002 C52.795,17.6950000000002 53.495,17.511 54.143,17.143 C54.791,16.7750000000001 55.323,16.3589999999999 55.739,15.895 C55.739,15.895 55.739,13.8789999999999 55.739,13.8789999999999 ZM35.147,18.4870000000001 C35.052,18.759 34.875,18.9949999999999 34.62,19.194 C34.363,19.395 34.075,19.4949999999999 33.755,19.4949999999999 C33.435,19.4949999999999 33.147,19.395 32.891,19.194 C32.635,18.9949999999999 32.451,18.7510000000002 32.34,18.4630000000002 C32.34,18.4630000000002 29.795,10.5189999999998 29.795,10.5189999999998 C29.795,10.5189999999998 27.251,18.4630000000002 27.251,18.4630000000002 C27.139,18.7510000000002 26.955,18.9949999999999 26.7,19.194 C26.443,19.395 26.155,19.4949999999999 25.835,19.4949999999999 C25.515,19.4949999999999 25.227,19.395 24.971,19.194 C24.715,18.9949999999999 24.539,18.759 24.443,18.4870000000001 C24.443,18.4870000000001 21.035,8.50300000000016 21.035,8.50300000000016 C20.988,8.35899999999992 20.964,8.17900000000009 20.964,7.96300000000019 C20.964,7.74600000000009 21.067,7.53499999999985 21.275,7.32700000000023 C21.483,7.11900000000014 21.723,7.01400000000012 21.996,7.01400000000012 C22.555,7.01400000000012 22.899,7.23000000000002 23.027,7.66300000000001 C23.027,7.66300000000001 25.835,16.902 25.835,16.902 C25.835,16.902 28.619,7.87800000000016 28.619,7.87800000000016 C28.699,7.62300000000005 28.847,7.41499999999996 29.064,7.25500000000011 C29.279,7.0949999999998 29.523,7.01400000000012 29.795,7.01400000000012 C30.067,7.01400000000012 30.311,7.0949999999998 30.527,7.25500000000011 C30.744,7.41499999999996 30.891,7.62300000000005 30.971,7.87800000000016 C30.971,7.87800000000016 33.755,16.902 33.755,16.902 C33.755,16.902 36.564,7.66300000000001 36.564,7.66300000000001 C36.691,7.23000000000002 37.035,7.01400000000012 37.595,7.01400000000012 C37.867,7.01400000000012 38.107,7.11900000000014 38.315,7.32700000000023 C38.523,7.53499999999985 38.627,7.74600000000009 38.627,7.96300000000019 C38.627,8.17900000000009 38.603,8.35899999999992 38.555,8.50300000000016 C38.555,8.50300000000016 35.147,18.4870000000001 35.147,18.4870000000001 ZM29.844,4.375 C28.739,4.375 27.844,3.47899999999981 27.844,2.3739999999998 C27.844,1.26999999999998 28.739,0.375 29.844,0.375 C30.948,0.375 31.844,1.26999999999998 31.844,2.3739999999998 C31.844,3.47899999999981 30.948,4.375 29.844,4.375 ZM10.26,19.4949999999999 C9.956,19.4949999999999 9.699,19.3899999999999 9.492,19.1819999999998 C9.28400000000001,18.9749999999999 9.18000000000001,18.7190000000001 9.18000000000001,18.4140000000002 C9.18000000000001,18.4140000000002 9.18000000000001,17.7910000000002 9.18000000000001,17.7910000000002 C8.748,18.239 8.16800000000001,18.654 7.44,19.038 C6.711,19.422 5.78700000000001,19.6149999999998 4.66800000000001,19.6149999999998 C3.56399999999999,19.6149999999998 2.643,19.2950000000001 1.908,18.654 C1.14,17.982 0.756,17.1030000000001 0.756,16.0149999999999 C0.756,14.8310000000001 1.203,13.9029999999998 2.09999999999999,13.2310000000002 C3.075,12.4949999999999 4.467,12.127 6.276,12.127 C6.276,12.127 9.18000000000001,12.127 9.18000000000001,12.127 C9.18000000000001,12.127 9.18000000000001,11.9349999999999 9.18000000000001,11.9349999999999 C9.18000000000001,10.8629999999998 8.916,10.0990000000002 8.38800000000001,9.64300000000003 C7.86,9.18600000000015 7.051,8.95899999999983 5.964,8.95899999999983 C5.035,8.95899999999983 3.97199999999999,9.15099999999984 2.77200000000001,9.53499999999985 C2.643,9.56700000000001 2.499,9.58300000000008 2.34,9.58300000000008 C2.18000000000001,9.58300000000008 2.012,9.4989999999998 1.836,9.33100000000013 C1.65900000000001,9.16300000000001 1.572,8.90299999999979 1.572,8.55099999999993 C1.572,8.19900000000007 1.779,7.93499999999995 2.196,7.75799999999981 C3.54000000000001,7.18199999999979 4.932,6.89399999999978 6.372,6.89399999999978 C8.004,6.89399999999978 9.267,7.39100000000008 10.164,8.38299999999981 C10.964,9.24699999999984 11.364,10.3270000000002 11.364,11.623 C11.364,11.623 11.364,18.4140000000002 11.364,18.4140000000002 C11.364,18.7190000000001 11.256,18.9749999999999 11.04,19.1819999999998 C10.824,19.3899999999999 10.563,19.4949999999999 10.26,19.4949999999999 ZM9.18000000000001,13.8789999999999 C9.18000000000001,13.8789999999999 6.56399999999999,13.8789999999999 6.56399999999999,13.8789999999999 C5.42700000000001,13.8789999999999 4.539,14.0219999999999 3.90000000000001,14.3110000000001 C3.259,14.5990000000002 2.94,15.087 2.94,15.7750000000001 C2.94,17.0549999999998 3.788,17.6950000000002 5.48399999999999,17.6950000000002 C6.236,17.6950000000002 6.93600000000001,17.511 7.584,17.143 C8.232,16.7750000000001 8.76300000000001,16.3589999999999 9.18000000000001,15.895 C9.18000000000001,15.895 9.18000000000001,13.8789999999999 9.18000000000001,13.8789999999999 Z "/></svg>