<?xml version="1.0" encoding="utf-8"?><!DOCTYPE svg PUBLIC "-//W3C//DTD SVG 1.1//EN" "http://www.w3.org/Graphics/SVG/1.1/DTD/svg11.dtd"><svg version="1.1" baseProfile="full" xmlns="http://www.w3.org/2000/svg" xmlns:xlink="http://www.w3.org/1999/xlink" xmlns:ev="http://www.w3.org/2001/xml-events"   height="17px"   width="15px" ><path fill="rgb( 255, 255, 255 )" d="M14.388,9.19099999999997 C14.388,9.19099999999997 14.398,9.20600000000002 14.398,9.20600000000002 C14.398,9.20600000000002 8.39800000000002,13.206 8.39800000000002,13.206 C8.39800000000002,13.206 8.38800000000003,13.191 8.38800000000003,13.191 C8.22900000000004,13.298 8.04899999999998,13.374 7.84400000000005,13.374 C7.63800000000003,13.374 7.45799999999997,13.298 7.29899999999998,13.191 C7.29899999999998,13.191 7.28899999999999,13.206 7.28899999999999,13.206 C7.28899999999999,13.206 1.28899999999999,9.20600000000002 1.28899999999999,9.20600000000002 C1.28899999999999,9.20600000000002 1.29899999999998,9.19099999999997 1.29899999999998,9.19099999999997 C1.03099999999995,9.01100000000002 0.84400000000005,8.721 0.84400000000005,8.37400000000002 C0.84400000000005,7.822 1.29100000000005,7.37400000000002 1.84299999999996,7.37400000000002 C2.04899999999998,7.37400000000002 2.22900000000004,7.45100000000002 2.38800000000003,7.55799999999999 C2.38800000000003,7.55799999999999 2.39800000000002,7.54199999999997 2.39800000000002,7.54199999999997 C2.39800000000002,7.54199999999997 7.84400000000005,11.172 7.84400000000005,11.172 C7.84400000000005,11.172 13.289,7.54199999999997 13.289,7.54199999999997 C13.289,7.54199999999997 13.299,7.55799999999999 13.299,7.55799999999999 C13.458,7.45100000000002 13.638,7.37400000000002 13.8440000000001,7.37400000000002 C14.396,7.37400000000002 14.8440000000001,7.822 14.8440000000001,8.37400000000002 C14.8440000000001,8.721 14.6559999999999,9.01100000000002 14.388,9.19099999999997 ZM14.388,6.19099999999997 C14.388,6.19099999999997 14.398,6.20600000000002 14.398,6.20600000000002 C14.398,6.20600000000002 8.39800000000002,10.206 8.39800000000002,10.206 C8.39800000000002,10.206 8.38800000000003,10.191 8.38800000000003,10.191 C8.22900000000004,10.297 8.04899999999998,10.374 7.84400000000005,10.374 C7.63800000000003,10.374 7.45799999999997,10.297 7.29899999999998,10.191 C7.29899999999998,10.191 7.28899999999999,10.206 7.28899999999999,10.206 C7.28899999999999,10.206 1.28899999999999,6.20600000000002 1.28899999999999,6.20600000000002 C1.28899999999999,6.20600000000002 1.29899999999998,6.19099999999997 1.29899999999998,6.19099999999997 C1.03099999999995,6.01100000000002 0.84400000000005,5.721 0.84400000000005,5.37400000000002 C0.84400000000005,5.02800000000002 1.03099999999995,4.73700000000002 1.29899999999998,4.55799999999999 C1.29899999999998,4.55799999999999 1.28899999999999,4.54199999999997 1.28899999999999,4.54199999999997 C1.28899999999999,4.54199999999997 7.28899999999999,0.54199999999997 7.28899999999999,0.54199999999997 C7.28899999999999,0.54199999999997 7.29899999999998,0.55700000000002 7.29899999999998,0.55700000000002 C7.45799999999997,0.45100000000002 7.63800000000003,0.37400000000002 7.84400000000005,0.37400000000002 C8.04899999999998,0.37400000000002 8.22900000000004,0.45100000000002 8.38800000000003,0.55700000000002 C8.38800000000003,0.55700000000002 8.39800000000002,0.54199999999997 8.39800000000002,0.54199999999997 C8.39800000000002,0.54199999999997 14.398,4.54199999999997 14.398,4.54199999999997 C14.398,4.54199999999997 14.388,4.55799999999999 14.388,4.55799999999999 C14.6559999999999,4.73700000000002 14.8440000000001,5.02800000000002 14.8440000000001,5.37400000000002 C14.8440000000001,5.721 14.6559999999999,6.01100000000002 14.388,6.19099999999997 ZM7.84400000000005,2.57600000000002 C7.84400000000005,2.57600000000002 3.64599999999996,5.37400000000002 3.64599999999996,5.37400000000002 C3.64599999999996,5.37400000000002 7.84400000000005,8.17200000000003 7.84400000000005,8.17200000000003 C7.84400000000005,8.17200000000003 10.554,6.36599999999999 10.554,6.36599999999999 C10.554,6.36599999999999 12.0410000000001,5.37400000000002 12.0410000000001,5.37400000000002 C12.0410000000001,5.37400000000002 7.84400000000005,2.57600000000002 7.84400000000005,2.57600000000002 ZM1.84299999999996,10.374 C2.04899999999998,10.374 2.22900000000004,10.451 2.38800000000003,10.558 C2.38800000000003,10.558 2.39800000000002,10.542 2.39800000000002,10.542 C2.39800000000002,10.542 7.84400000000005,14.173 7.84400000000005,14.173 C7.84400000000005,14.173 13.289,10.542 13.289,10.542 C13.289,10.542 13.299,10.558 13.299,10.558 C13.458,10.451 13.638,10.374 13.8440000000001,10.374 C14.396,10.374 14.8440000000001,10.822 14.8440000000001,11.374 C14.8440000000001,11.721 14.6559999999999,12.011 14.388,12.191 C14.388,12.191 14.398,12.206 14.398,12.206 C14.398,12.206 8.39800000000002,16.206 8.39800000000002,16.206 C8.39800000000002,16.206 8.38800000000003,16.191 8.38800000000003,16.191 C8.22900000000004,16.297 8.04899999999998,16.374 7.84400000000005,16.374 C7.63800000000003,16.374 7.45799999999997,16.297 7.29899999999998,16.191 C7.29899999999998,16.191 7.28899999999999,16.206 7.28899999999999,16.206 C7.28899999999999,16.206 1.28899999999999,12.206 1.28899999999999,12.206 C1.28899999999999,12.206 1.29899999999998,12.191 1.29899999999998,12.191 C1.03099999999995,12.011 0.84400000000005,11.721 0.84400000000005,11.374 C0.84400000000005,10.822 1.29100000000005,10.374 1.84299999999996,10.374 Z "/></svg>