<?xml version="1.0" encoding="utf-8"?><!DOCTYPE svg PUBLIC "-//W3C//DTD SVG 1.1//EN" "http://www.w3.org/Graphics/SVG/1.1/DTD/svg11.dtd"><svg version="1.1" baseProfile="full" xmlns="http://www.w3.org/2000/svg" xmlns:xlink="http://www.w3.org/1999/xlink" xmlns:ev="http://www.w3.org/2001/xml-events"   height="17px"   width="14px" ><path fill="rgb( 255, 255, 255 )" d="M13.843,6.99799999999999 C13.843,3.33699999999999 10.933,0.36900000000003 7.34300000000002,0.36900000000003 C3.75299999999999,0.36900000000003 0.84300000000002,3.33699999999999 0.84300000000002,6.99799999999999 C0.84300000000002,7.11399999999998 0.85399999999998,7.22699999999998 0.86000000000001,7.33999999999997 C0.85500000000002,7.39600000000002 0.84300000000002,7.45100000000002 0.84300000000002,7.50799999999998 C0.84300000000002,11.588 6.84300000000002,16.209 6.84300000000002,16.209 C6.84300000000002,16.209 7.34300000000002,16.592 7.84300000000002,16.209 C8.34300000000002,15.827 13.843,11.588 13.843,7.50799999999998 C13.843,7.45100000000002 13.832,7.39600000000002 13.826,7.33999999999997 C13.832,7.22699999999998 13.843,7.11399999999998 13.843,6.99799999999999 ZM7.34300000000002,9.548 C5.96199999999999,9.548 4.84300000000002,8.40699999999998 4.84300000000002,6.99799999999999 C4.84300000000002,5.58999999999997 5.96199999999999,4.44799999999998 7.34300000000002,4.44799999999998 C8.72399999999999,4.44799999999998 9.84300000000002,5.58999999999997 9.84300000000002,6.99799999999999 C9.84300000000002,8.40699999999998 8.72399999999999,9.548 7.34300000000002,9.548 Z "/></svg>